<?xml version="1.0" standalone="no"?>
<!DOCTYPE svg PUBLIC "-//W3C//DTD SVG 20010904//EN"
 "http://www.w3.org/TR/2001/REC-SVG-20010904/DTD/svg10.dtd">
<svg version="1.0" xmlns="http://www.w3.org/2000/svg"
 width="1920.000000pt" height="1080.000000pt" viewBox="0 0 1920.000000 1080.000000"
 preserveAspectRatio="xMidYMid meet">

<g transform="translate(0.000000,1080.000000) scale(0.100000,-0.100000)"
fill="#000000" stroke="none">
<path d="M8640 10785 c9 -11 16 -12 25 -5 10 8 15 8 21 -1 4 -8 3 -9 -4 -5
-14 8 -15 -3 -3 -22 6 -10 10 -8 14 10 10 36 9 38 -29 38 -31 0 -35 -2 -24
-15z"/>
<path d="M10240 10785 c7 -8 17 -15 22 -15 6 0 61 -29 123 -65 63 -36 116 -65
119 -65 8 0 8 74 0 94 -3 9 -10 13 -15 10 -5 -3 -9 0 -9 5 0 6 -3 10 -7 9 -5
-1 -30 8 -56 20 -61 28 -198 33 -177 7z"/>
<path d="M10820 10554 l0 -245 23 7 c12 4 24 10 27 14 3 4 20 15 38 24 19 10
30 21 26 28 -4 7 -3 8 5 4 7 -5 37 7 69 26 31 19 72 40 90 47 17 7 32 17 32
21 0 4 25 19 55 35 30 15 55 32 55 38 0 6 3 8 6 4 3 -3 32 10 64 29 32 19 63
34 68 34 5 0 17 9 27 20 10 11 22 20 26 20 4 0 41 20 81 44 41 24 83 46 94 50
10 3 30 15 44 26 25 20 24 20 -402 20 l-428 0 0 -246z"/>
<path d="M12778 10588 c1 -117 3 -230 5 -250 l2 -37 165 96 c91 52 199 114
240 137 153 86 435 249 445 258 5 4 -187 8 -425 8 l-435 0 3 -212z"/>
<path d="M13895 10790 c10 -17 85 -51 96 -45 5 4 8 1 7 -6 -2 -6 31 -29 72
-51 41 -22 77 -44 78 -49 3 -6 10 -5 18 2 11 9 13 9 9 -2 -5 -14 3 -20 75 -54
19 -8 37 -19 40 -23 3 -4 31 -20 62 -36 31 -15 62 -34 68 -41 6 -8 19 -11 27
-8 10 4 14 2 10 -4 -8 -12 58 -44 77 -37 8 3 15 -3 19 -15 3 -11 28 -31 58
-47 30 -14 66 -35 81 -45 32 -23 39 -24 32 -4 -4 8 -1 15 6 15 9 0 10 3 1 13
-8 10 -7 17 1 25 7 7 8 12 3 12 -6 0 -9 80 -7 205 l3 205 -421 0 c-282 0 -419
-3 -415 -10z m475 -250 c0 -5 -2 -10 -4 -10 -3 0 -8 5 -11 10 -3 6 -1 10 4 10
6 0 11 -4 11 -10z"/>
<path d="M15360 10792 c0 -4 5 -13 12 -20 9 -9 9 -12 -2 -12 -8 0 -4 -6 9 -13
39 -20 50 -45 26 -63 -88 -64 -131 -128 -94 -139 10 -4 19 -11 19 -17 0 -5 7
-8 14 -5 9 4 17 -2 21 -14 4 -10 11 -19 16 -19 5 0 9 -7 9 -15 0 -8 4 -15 8
-15 4 0 13 -12 19 -27 6 -16 20 -41 30 -58 10 -16 18 -31 19 -33 0 -1 14 4 30
12 46 22 74 28 74 17 0 -6 6 -8 14 -5 8 3 17 0 21 -6 5 -8 11 -8 21 1 12 9 16
6 25 -21 9 -23 14 -28 20 -18 7 11 11 10 18 -2 6 -8 12 -12 15 -10 2 3 8 114
12 248 l7 242 -182 0 c-99 0 -181 -4 -181 -8z"/>
<path d="M15846 10792 c5 -5 74 -46 154 -92 80 -46 262 -151 405 -233 143 -83
285 -164 315 -180 30 -17 118 -67 195 -112 77 -45 167 -97 200 -116 33 -19 68
-38 77 -44 79 -46 373 -216 416 -241 30 -17 64 -40 76 -51 11 -11 48 -35 81
-52 60 -32 93 -51 215 -121 36 -21 171 -97 300 -170 129 -73 268 -153 307
-177 40 -23 75 -43 78 -43 3 0 5 254 5 564 l0 564 -147 84 c-335 192 -670 386
-703 406 -23 14 -51 22 -82 22 l-48 0 0 -167 c0 -264 -12 -603 -22 -603 -5 0
-13 11 -17 24 -5 13 -17 26 -26 30 -10 4 -15 12 -11 22 3 8 1 12 -4 9 -5 -3
-19 4 -32 17 -25 25 -35 29 -93 32 -22 1 -60 11 -85 23 -25 11 -55 23 -67 27
-13 4 -23 11 -23 16 0 4 -8 7 -17 6 -10 -2 -30 10 -46 25 -15 16 -36 29 -48
29 -13 0 -18 4 -13 12 4 6 3 8 -3 5 -5 -3 -21 0 -36 8 -20 10 -27 11 -28 2 0
-7 -4 -1 -10 11 -5 13 -14 22 -21 20 -7 -3 -20 2 -29 10 -20 18 -86 42 -113
42 -30 0 99 85 383 251 l255 149 -874 0 c-481 0 -870 -4 -864 -8z"/>
<path d="M19097 10545 c-48 -30 -162 -98 -252 -151 -91 -52 -165 -99 -165
-103 0 -6 480 -286 512 -299 4 -2 8 134 8 302 0 168 -3 306 -7 306 -5 -1 -47
-25 -96 -55z"/>
<path d="M3875 10295 c-18 -17 -25 -35 -25 -60 0 -28 -5 -38 -20 -42 -11 -3
-20 -12 -20 -19 0 -8 9 -14 20 -14 19 0 20 -7 20 -100 0 -93 1 -100 20 -100
18 0 20 8 22 98 l3 97 50 0 50 0 3 -85 c3 -97 16 -120 69 -120 25 0 33 4 33
18 0 11 -8 18 -22 19 -32 3 -38 21 -36 98 3 68 4 70 31 73 15 2 27 9 27 17 0
8 -12 15 -27 17 -24 2 -29 8 -31 36 -4 43 -34 41 -42 -3 -5 -29 -8 -30 -55
-30 -47 0 -50 2 -53 27 -4 31 31 73 54 64 9 -3 14 1 14 14 0 30 -54 27 -85 -5z"/>
<path d="M2564 10285 c-4 -9 -2 -21 4 -27 16 -16 47 -5 47 17 0 26 -42 34 -51
10z"/>
<path d="M15651 10284 c0 -11 3 -14 6 -6 3 7 2 16 -1 19 -3 4 -6 -2 -5 -13z"/>
<path d="M1040 10100 l0 -190 195 0 195 0 0 190 0 190 -195 0 -195 0 0 -190z"/>
<path d="M2130 10125 c0 -158 1 -165 20 -165 19 0 20 7 20 130 0 72 4 130 9
130 10 0 26 -32 76 -162 28 -71 43 -98 55 -98 13 0 31 34 69 126 28 69 51 129
51 135 0 5 5 9 10 9 6 0 10 -52 10 -135 l0 -135 25 0 25 0 0 165 0 165 -38 0
-38 0 -53 -130 c-29 -71 -56 -128 -60 -125 -4 2 -29 61 -56 130 l-48 125 -38
0 -39 0 0 -165z"/>
<path d="M2734 10184 c-67 -33 -87 -138 -36 -194 43 -48 152 -55 152 -10 0 16
-4 18 -23 11 -33 -13 -75 -2 -92 22 -23 33 -19 100 8 124 31 28 53 34 82 23
21 -8 25 -7 25 9 0 34 -62 42 -116 15z"/>
<path d="M2986 10179 c-23 -18 -27 -18 -32 -5 -3 9 -15 16 -25 16 -18 0 -19
-9 -19 -115 0 -108 1 -115 20 -115 18 0 20 7 20 63 0 79 24 131 63 135 19 2
27 9 27 23 0 25 -21 24 -54 -2z"/>
<path d="M3124 10185 c-42 -22 -59 -57 -58 -122 0 -45 5 -58 27 -81 24 -23 36
-27 87 -27 51 0 63 4 85 26 49 48 50 139 2 186 -32 32 -99 40 -143 18z m125
-61 c24 -54 0 -133 -42 -135 -82 -4 -114 41 -90 130 14 53 108 57 132 5z"/>
<path d="M3395 10190 c-57 -23 -59 -82 -5 -117 75 -47 85 -66 46 -84 -18 -8
-33 -8 -55 -1 -27 10 -31 9 -31 -7 0 -22 19 -31 64 -31 45 0 86 34 86 70 0 29
-19 49 -79 82 -35 19 -38 30 -14 53 11 12 25 15 50 10 25 -4 33 -2 33 8 0 26
-52 35 -95 17z"/>
<path d="M3620 10193 c-90 -33 -104 -184 -21 -227 59 -31 147 -10 170 40 16
36 14 121 -5 149 -23 36 -96 55 -144 38z m101 -62 c16 -20 20 -36 16 -70 -6
-54 -25 -73 -73 -73 -47 0 -74 29 -74 78 0 47 19 82 49 92 35 12 58 5 82 -27z"/>
<path d="M6723 10181 c-111 -38 -187 -113 -223 -221 -77 -226 117 -447 352
-400 34 6 75 18 90 26 31 16 39 41 11 29 -114 -47 -246 -26 -333 52 -68 61
-93 119 -88 203 7 114 66 199 176 252 62 30 75 32 167 32 118 0 177 -22 200
-77 13 -29 14 -30 15 -8 0 33 -74 103 -128 119 -59 17 -177 14 -239 -7z"/>
<path d="M2570 10075 c0 -108 1 -115 20 -115 19 0 20 7 20 115 0 108 -1 115
-20 115 -19 0 -20 -7 -20 -115z"/>
<path d="M5317 10114 c-4 -4 -7 -16 -7 -26 0 -16 9 -18 70 -18 l70 0 0 -185
c0 -157 2 -187 15 -191 8 -4 22 -1 30 6 12 10 15 45 15 191 l0 178 68 3 c59 3
67 5 67 23 0 19 -8 20 -161 23 -88 1 -163 -1 -167 -4z"/>
<path d="M5705 10108 c-3 -7 -4 -103 -3 -213 3 -192 4 -200 23 -200 18 0 20 8
23 100 2 86 6 103 24 122 32 34 99 32 127 -3 18 -23 21 -41 21 -121 0 -74 3
-95 15 -99 31 -12 45 15 45 90 -1 103 -13 146 -52 179 -26 22 -42 27 -83 27
-29 -1 -58 -7 -70 -16 -20 -15 -20 -13 -25 63 -4 64 -8 78 -23 81 -9 2 -19 -3
-22 -10z"/>
<path d="M7395 10103 c-117 -61 -157 -189 -97 -304 38 -74 98 -111 179 -112
69 0 143 32 143 63 0 27 -17 34 -43 17 -74 -48 -154 -40 -207 20 -73 83 -58
207 32 264 42 26 136 23 167 -5 24 -21 51 -15 51 12 0 11 -16 27 -39 40 -47
27 -140 29 -186 5z"/>
<path d="M11112 10103 c7 -8 22 -13 36 -10 53 10 35 -46 -19 -58 -27 -6 -29
-10 -29 -56 l0 -49 35 0 35 0 0 60 0 60 60 0 60 0 0 35 0 36 -95 -2 c-82 -1
-94 -4 -83 -16z"/>
<path d="M11490 10085 l0 -34 58 -3 57 -3 3 -57 3 -58 34 0 35 0 0 95 0 95
-95 0 -95 0 0 -35z"/>
<path d="M11903 10071 c-46 -29 -66 -74 -60 -135 4 -41 10 -55 41 -83 31 -28
43 -33 87 -33 47 0 109 23 109 41 0 18 -29 30 -49 20 -33 -18 -89 -13 -111 9
-31 31 -28 102 6 129 32 25 71 27 103 5 21 -15 24 -15 39 0 15 15 15 18 -5 38
-32 31 -117 36 -160 9z"/>
<path d="M12147 10083 c-4 -3 -7 -64 -7 -135 l0 -128 85 0 c84 0 85 0 85 25 0
24 -3 25 -60 25 l-60 0 0 110 c0 100 -2 110 -18 110 -10 0 -22 -3 -25 -7z"/>
<path d="M12411 10072 c-65 -33 -90 -125 -51 -189 54 -90 206 -82 246 12 52
126 -73 240 -195 177z m127 -58 c62 -69 -5 -178 -88 -144 -73 30 -70 140 5
170 28 12 56 3 83 -26z"/>
<path d="M12677 10084 c-11 -11 -8 -144 3 -186 20 -70 99 -100 169 -63 41 21
52 58 49 161 -3 84 -4 89 -25 92 -22 3 -23 1 -23 -88 0 -83 -2 -93 -25 -115
-28 -29 -43 -31 -71 -11 -16 12 -20 30 -24 113 -5 89 -7 98 -25 101 -12 2 -24
0 -28 -4z"/>
<path d="M12988 10084 c-16 -5 -18 -20 -18 -135 l0 -129 71 0 c118 0 169 40
169 134 0 83 -41 121 -140 129 -36 3 -73 3 -82 1z m149 -79 c29 -33 29 -74 2
-109 -18 -23 -27 -27 -68 -24 l-46 3 -3 69 c-4 94 -1 100 51 93 28 -4 49 -14
64 -32z"/>
<path d="M13378 9954 l-3 -134 28 0 27 0 0 80 c0 44 3 80 8 79 4 0 33 -36 65
-80 50 -68 63 -79 88 -79 l30 0 -3 132 -3 133 -25 0 c-24 0 -25 -2 -30 -84
l-5 -84 -60 79 c-32 43 -60 81 -62 83 -1 2 -14 5 -27 6 l-25 3 -3 -134z"/>
<path d="M13783 10081 c-14 -9 -27 -36 -78 -156 l-44 -105 27 0 c19 0 32 9 44
30 16 28 21 30 73 30 54 0 57 -2 68 -30 9 -23 17 -30 39 -30 15 0 28 3 28 8 0
11 -101 235 -111 246 -11 12 -33 16 -46 7z m37 -107 c17 -43 13 -54 -20 -54
-33 0 -35 3 -19 49 13 38 26 40 39 5z"/>
<path d="M13968 10083 c-20 -3 -28 -10 -28 -24 0 -16 7 -19 40 -19 l40 0 0
-110 0 -110 25 0 c24 0 24 1 27 108 l3 107 38 3 c33 3 38 6 35 25 -3 20 -9 22
-78 23 -41 1 -87 -1 -102 -3z"/>
<path d="M14205 10082 c-3 -3 -5 -63 -5 -134 l0 -128 30 0 31 0 -3 132 c-3
128 -4 131 -26 133 -12 1 -24 -1 -27 -3z"/>
<path d="M14300 10078 c0 -7 10 -33 21 -58 11 -25 34 -80 51 -123 28 -73 32
-78 56 -75 24 3 31 14 69 110 59 149 60 154 29 154 -23 0 -29 -9 -58 -83 -18
-46 -36 -83 -39 -83 -3 0 -22 37 -40 83 -30 72 -38 82 -62 85 -17 2 -27 -1
-27 -10z"/>
<path d="M14604 10081 c-2 -2 -4 -62 -4 -133 l0 -128 95 0 c95 0 95 0 95 25 0
24 -2 25 -71 25 l-70 0 3 28 c3 26 6 27 61 30 53 3 57 5 57 27 0 24 -3 25 -61
25 -60 0 -60 0 -57 28 3 26 5 27 71 30 63 3 67 4 67 26 0 23 -2 24 -91 22 -50
0 -93 -3 -95 -5z"/>
<path d="M6722 9999 c-39 -40 -60 -85 -68 -143 -8 -54 14 -96 48 -96 21 0 21
0 3 14 -14 10 -19 25 -19 54 2 56 33 148 60 177 34 36 12 31 -24 -6z"/>
<path d="M6834 10008 c12 -19 -6 -123 -29 -168 -9 -18 -10 -41 -5 -83 13 -95
56 -122 114 -72 33 28 32 28 101 27 l50 -1 -45 10 c-60 14 -79 13 -99 -5 -21
-19 -62 -21 -79 -4 -19 19 -14 97 13 204 14 54 25 101 25 105 0 3 -13 6 -28 5
-25 -1 -27 -4 -18 -18z"/>
<path d="M7081 10014 c0 -11 3 -14 6 -6 3 7 2 16 -1 19 -3 4 -6 -2 -5 -13z"/>
<path d="M6113 9970 c-42 -25 -62 -57 -69 -111 -11 -88 60 -169 149 -169 54 0
107 24 107 49 0 25 -15 26 -65 6 -29 -13 -43 -14 -71 -5 -31 11 -74 51 -74 71
0 5 51 10 113 11 l112 3 3 38 c4 45 -25 98 -63 115 -39 18 -106 14 -142 -8z
m116 -35 c28 -14 41 -33 41 -61 0 -11 -18 -14 -83 -14 -46 0 -86 3 -90 6 -11
11 16 55 42 69 34 18 56 18 90 0z"/>
<path d="M7729 9967 c-84 -56 -91 -176 -15 -246 39 -37 128 -41 176 -9 125 84
69 278 -80 278 -32 0 -58 -7 -81 -23z m146 -51 c47 -47 44 -121 -7 -159 -54
-40 -133 -13 -152 51 -19 69 26 132 94 132 30 0 47 -6 65 -24z"/>
<path d="M8035 9968 c-3 -13 -4 -79 -3 -148 3 -113 5 -125 22 -128 29 -6 36
16 36 119 0 105 11 129 61 129 52 0 60 -17 66 -138 6 -107 7 -113 27 -110 19
3 21 11 26 109 6 119 15 139 65 139 50 0 59 -20 65 -139 5 -98 7 -106 25 -106
18 0 20 8 23 100 3 119 -1 139 -35 171 -34 32 -99 33 -138 3 -16 -13 -30 -18
-33 -12 -20 31 -95 43 -134 22 -14 -8 -23 -8 -31 0 -18 18 -36 13 -42 -11z"/>
<path d="M8610 9971 c-62 -33 -75 -68 -78 -224 -4 -157 0 -187 27 -187 25 0
31 19 31 101 l0 69 33 -20 c63 -39 150 -19 187 43 27 43 26 121 0 165 -42 68
-129 91 -200 53z m141 -60 c53 -54 34 -137 -38 -168 -31 -12 -38 -12 -71 4
-94 46 -63 193 40 193 30 0 46 -7 69 -29z"/>
<path d="M8959 9967 c-87 -58 -91 -181 -10 -250 41 -34 115 -38 154 -7 31 25
33 25 40 -1 4 -13 12 -20 24 -17 28 5 31 168 5 218 -42 78 -142 105 -213 57z
m132 -37 c22 -13 49 -61 49 -90 0 -37 -30 -81 -66 -96 -29 -12 -39 -12 -68 0
-36 15 -66 59 -66 96 0 28 26 77 47 89 23 13 79 14 104 1z"/>
<path d="M9264 9977 c-2 -7 -3 -73 -2 -147 3 -123 5 -135 22 -138 29 -6 36 16
36 116 0 107 14 132 74 132 75 0 88 -21 96 -150 5 -87 7 -95 25 -95 19 0 20 7
20 113 l0 114 -37 34 c-32 29 -45 34 -86 34 -26 0 -57 -7 -69 -15 -18 -13 -22
-13 -33 0 -15 18 -39 19 -46 2z"/>
<path d="M9584 9975 c-5 -13 47 -126 104 -224 16 -28 16 -32 -7 -83 -13 -29
-26 -66 -28 -81 -5 -25 -3 -28 17 -25 19 2 37 35 111 203 63 145 85 203 77
212 -18 22 -35 14 -51 -24 -8 -21 -30 -69 -47 -108 l-32 -70 -54 108 c-52 103
-77 128 -90 92z"/>
<path d="M16202 9819 c-51 -33 -97 -59 -101 -59 -9 0 -24 -30 -19 -35 11 -10
82 -34 88 -30 4 3 10 -10 14 -28 5 -25 9 -29 16 -17 7 12 12 12 22 2 14 -14
32 -16 23 -3 -3 5 -1 13 5 16 6 4 10 3 9 -2 -3 -19 3 -67 8 -55 2 6 11 12 19
12 11 0 14 16 14 68 1 37 3 92 6 123 3 31 2 59 -3 62 -4 2 -50 -22 -101 -54z"/>
<path d="M2233 9793 c-10 -30 -83 -225 -103 -276 l-19 -48 27 3 c22 2 29 11
41 46 l13 43 76 -3 75 -3 16 -42 c12 -34 20 -43 38 -43 13 0 23 3 23 8 0 6
-18 55 -98 265 -23 61 -28 67 -54 67 -18 0 -31 -6 -35 -17z m71 -121 c28 -82
27 -85 -45 -80 -40 3 -44 5 -41 28 5 42 45 141 53 133 5 -5 20 -41 33 -81z"/>
<path d="M11100 9635 l0 -95 95 0 95 0 0 35 c0 35 0 35 -44 35 -70 0 -76 5
-76 66 l0 54 -35 0 -35 0 0 -95z"/>
<path d="M11608 9673 l-3 -58 -57 -3 -58 -3 0 -34 0 -35 95 0 95 0 0 95 0 95
-35 0 -34 0 -3 -57z"/>
<path d="M3216 9710 c-40 -12 -64 -37 -77 -81 -15 -49 -4 -101 28 -133 21 -21
35 -26 79 -26 60 0 84 7 84 24 0 9 -16 11 -54 8 -45 -4 -57 -1 -75 17 -11 11
-21 30 -21 41 0 18 7 20 85 20 93 0 92 -1 74 63 -15 54 -67 83 -123 67z m72
-42 c7 -7 12 -22 12 -35 0 -21 -4 -23 -60 -23 -65 0 -72 8 -44 48 17 25 71 31
92 10z"/>
<path d="M2470 9695 c0 -12 13 -15 60 -15 33 0 60 -4 60 -9 0 -5 -29 -49 -65
-97 -36 -49 -65 -92 -65 -96 0 -4 45 -8 100 -8 82 0 100 3 100 15 0 12 -14 15
-65 15 -50 0 -65 3 -65 14 0 8 4 17 10 21 11 7 120 160 120 169 0 3 -43 6 -95
6 -78 0 -95 -3 -95 -15z"/>
<path d="M2700 9616 c0 -79 3 -97 21 -120 24 -30 82 -36 115 -11 25 19 34 19
34 0 0 -8 9 -15 20 -15 19 0 20 7 20 120 0 113 -1 120 -20 120 -18 0 -20 -7
-20 -83 0 -95 -17 -127 -70 -127 -41 0 -50 23 -50 124 0 85 0 86 -25 86 -25 0
-25 0 -25 -94z"/>
<path d="M2980 9590 l0 -120 25 0 c25 0 25 1 25 84 0 92 11 116 55 116 14 0
25 7 28 20 4 16 0 20 -18 20 -13 0 -30 -7 -39 -15 -8 -8 -17 -15 -20 -15 -3 0
-6 7 -6 15 0 9 -9 15 -25 15 l-25 0 0 -120z"/>
<path d="M11863 9690 c-29 -27 -37 -56 -23 -90 15 -36 57 -55 93 -41 15 6 27
14 27 19 0 17 -12 21 -30 9 -28 -17 -70 6 -70 37 0 44 49 73 77 45 8 -8 13 -7
18 2 10 15 -21 39 -50 39 -12 0 -31 -9 -42 -20z"/>
<path d="M12015 9685 c-40 -39 -32 -96 16 -121 54 -27 109 8 109 69 0 35 -40
77 -75 77 -14 0 -37 -11 -50 -25z m83 -17 c7 -7 12 -24 12 -38 0 -31 -17 -50
-45 -50 -28 0 -45 19 -45 50 0 31 17 50 45 50 12 0 26 -5 33 -12z"/>
<path d="M12180 9636 c0 -44 4 -76 10 -76 6 0 10 18 10 40 0 49 11 51 33 5 21
-44 34 -44 53 0 17 43 34 37 34 -11 0 -19 5 -34 10 -34 7 0 10 27 8 73 -3 84
-20 95 -53 35 -11 -21 -23 -38 -27 -38 -5 0 -16 17 -25 37 -10 21 -26 39 -36
41 -15 3 -17 -6 -17 -72z"/>
<path d="M12390 9636 c0 -72 11 -100 23 -56 4 15 14 20 36 20 32 0 51 22 51
58 0 27 -22 43 -70 49 l-40 6 0 -77z m75 14 c0 -18 -6 -26 -23 -28 -24 -4 -38
18 -28 44 3 9 15 14 28 12 17 -2 23 -10 23 -28z"/>
<path d="M12536 9703 c-3 -3 -6 -28 -6 -55 0 -39 5 -54 25 -73 31 -32 50 -31
81 0 21 22 25 33 22 78 -4 68 -22 67 -28 -2 -9 -96 -70 -96 -70 0 0 45 -9 66
-24 52z"/>
<path d="M12690 9696 c0 -9 9 -16 20 -16 18 0 20 -7 20 -60 0 -47 3 -60 15
-60 12 0 15 13 15 60 0 54 2 60 21 60 12 0 19 5 17 13 -3 7 -26 13 -56 15 -42
2 -52 0 -52 -12z"/>
<path d="M12836 9703 c-3 -3 -6 -37 -6 -75 0 -54 3 -68 15 -68 12 0 15 14 15
69 0 65 -8 90 -24 74z"/>
<path d="M12910 9635 c0 -43 4 -75 10 -75 6 0 10 18 10 40 0 22 4 40 8 40 5 0
21 -18 38 -40 16 -22 37 -40 47 -40 16 0 18 8 15 73 -3 81 -20 94 -28 20 l-5
-47 -40 52 c-21 29 -43 52 -47 52 -4 0 -8 -34 -8 -75z"/>
<path d="M13104 9687 c-66 -57 -2 -159 78 -126 22 9 28 18 28 41 0 34 -23 34
-28 0 -6 -43 -82 -15 -82 30 0 28 37 51 70 45 22 -5 30 -3 30 7 0 33 -60 34
-96 3z"/>
<path d="M13307 9703 c-4 -3 -7 -37 -7 -75 0 -52 3 -68 14 -68 9 0 16 12 18
28 2 22 8 28 36 30 17 2 32 7 32 12 0 5 -15 10 -32 12 -21 2 -33 8 -33 18 0
10 12 16 33 18 51 5 42 32 -11 32 -24 0 -47 -3 -50 -7z"/>
<path d="M13469 9700 c-9 -5 -22 -23 -29 -40 -25 -61 32 -124 93 -101 53 20
65 95 21 130 -29 22 -59 26 -85 11z m78 -50 c10 -20 10 -29 -1 -45 -16 -24
-51 -31 -72 -15 -17 15 -18 62 -2 78 20 20 61 10 75 -18z"/>
<path d="M13620 9653 c0 -72 15 -96 60 -96 20 0 38 7 46 18 18 25 19 138 2
132 -9 -2 -12 -18 -10 -45 4 -48 -11 -82 -38 -82 -26 0 -42 33 -38 82 1 26 -2
43 -10 46 -8 2 -12 -13 -12 -55z"/>
<path d="M13787 9703 c-4 -3 -7 -37 -7 -75 0 -54 3 -68 15 -68 11 0 15 11 15
40 0 22 4 40 8 40 5 0 21 -18 38 -40 16 -22 37 -40 47 -40 16 0 18 8 15 73 -3
81 -20 94 -28 20 l-5 -48 -38 53 c-38 51 -47 58 -60 45z"/>
<path d="M13969 9704 c-1 -5 -2 -39 -3 -76 l-1 -68 46 0 c32 0 51 6 62 18 23
25 22 85 -1 105 -20 18 -101 34 -103 21z m83 -41 c10 -9 18 -23 18 -31 0 -24
-31 -52 -57 -52 -21 0 -23 4 -23 50 0 45 2 50 22 50 12 0 30 -7 40 -17z"/>
<path d="M14173 9698 c-4 -7 -20 -41 -35 -75 -20 -49 -23 -63 -12 -63 8 0 17
7 20 15 4 9 19 15 40 15 22 0 37 -6 40 -15 4 -8 12 -15 20 -15 18 0 19 -6 -15
75 -31 72 -43 86 -58 63z m30 -62 c7 -16 -1 -26 -20 -26 -7 0 -13 9 -13 20 0
23 25 27 33 6z"/>
<path d="M14267 9704 c-10 -11 2 -24 24 -24 17 0 19 -7 19 -60 0 -77 18 -79
22 -2 3 51 5 57 26 60 13 2 21 9 19 15 -4 13 -98 22 -110 11z"/>
<path d="M14416 9703 c-3 -3 -6 -37 -6 -75 0 -54 3 -68 15 -68 12 0 15 14 15
69 0 65 -8 90 -24 74z"/>
<path d="M14506 9689 c-20 -16 -26 -29 -26 -58 0 -72 79 -102 127 -47 30 35
29 67 -3 100 -32 31 -62 33 -98 5z m86 -34 c8 -19 8 -31 0 -51 -16 -34 -60
-30 -81 8 -14 24 -14 28 3 47 27 29 64 27 78 -4z"/>
<path d="M14670 9708 c-1 -2 -2 -36 -3 -76 -1 -52 1 -72 11 -72 7 0 12 15 12
40 0 22 4 40 9 40 5 0 22 -18 38 -40 15 -22 36 -40 46 -40 16 0 18 8 15 73 -3
81 -20 94 -28 20 l-5 -48 -38 53 c-32 43 -55 63 -57 50z"/>
<path d="M17630 9683 c-25 -14 -70 -40 -100 -58 -30 -18 -77 -45 -105 -60
-101 -56 -155 -96 -155 -117 0 -14 5 -18 15 -14 9 3 18 -1 21 -9 4 -8 10 -13
14 -10 11 7 40 -5 40 -16 0 -5 -7 -9 -16 -9 -12 0 -7 -9 17 -32 24 -23 33 -40
31 -59 -2 -17 3 -29 13 -33 9 -3 14 -9 12 -13 -3 -5 6 -9 19 -9 15 -1 22 2 17
10 -3 6 6 -2 20 -17 20 -21 31 -26 44 -19 10 5 38 12 61 16 38 6 44 4 49 -14
6 -23 38 -27 46 -6 10 26 20 483 11 489 -5 3 -29 -6 -54 -20z"/>
<path d="M16726 9618 c-9 -88 -15 -448 -7 -452 3 -2 40 16 81 41 41 25 120 71
175 101 55 30 102 57 105 61 10 14 60 41 75 41 8 0 15 9 15 20 0 11 -7 20 -15
20 -8 0 -15 -8 -15 -17 0 -14 -2 -15 -9 -5 -4 7 -18 14 -29 15 -16 1 -20 6
-16 19 4 14 -1 18 -23 20 -15 1 -35 2 -44 3 -13 1 -84 58 -113 93 -38 44 -61
61 -72 51 -9 -7 -16 -4 -26 10 -10 14 -18 17 -28 11 -10 -6 -20 -4 -31 6 -16
14 -18 12 -23 -38z"/>
<path d="M15660 9210 c0 -77 2 -140 5 -140 3 0 59 31 126 69 l120 69 -78 44
c-43 25 -99 57 -125 72 l-48 27 0 -141z"/>
<path d="M17370 9166 c0 -14 5 -26 10 -26 6 0 10 9 10 19 0 11 -4 23 -10 26
-6 4 -10 -5 -10 -19z"/>
<path d="M17553 9176 c-13 -6 -23 -18 -23 -28 0 -9 -4 -20 -10 -23 -17 -11
-11 -44 10 -55 16 -9 22 -8 26 5 3 8 10 13 15 10 10 -7 28 26 22 42 -2 6 1 14
6 18 8 4 8 12 1 26 -12 21 -15 21 -47 5z"/>
<path d="M17400 9120 c0 -5 5 -10 10 -10 6 0 10 5 10 10 0 6 -4 10 -10 10 -5
0 -10 -4 -10 -10z"/>
<path d="M19172 9079 c-14 -5 -20 -13 -16 -20 4 -8 3 -9 -5 -5 -7 5 -28 -3
-49 -17 -20 -14 -54 -33 -74 -43 -20 -9 -35 -20 -33 -24 2 -3 -13 -12 -33 -20
-47 -17 -172 -90 -172 -102 0 -4 -3 -7 -7 -6 -12 4 -73 -23 -73 -32 0 -4 -11
-12 -25 -18 -36 -16 -23 -35 48 -68 34 -16 66 -35 70 -41 4 -7 14 -13 22 -13
8 0 41 -18 73 -40 40 -28 65 -39 78 -34 13 4 15 3 7 -3 -9 -6 0 -16 32 -31 25
-12 52 -22 61 -22 8 0 13 -4 10 -9 -3 -4 12 -16 34 -26 21 -10 48 -26 60 -37
l20 -19 0 321 c0 176 -1 320 -2 319 -2 0 -13 -4 -26 -10z m-32 -559 c0 -5 -5
-10 -11 -10 -5 0 -7 5 -4 10 3 6 8 10 11 10 2 0 4 -4 4 -10z"/>
<path d="M8777 8650 c-14 -30 -59 -126 -101 -214 -42 -87 -76 -160 -76 -162 0
-2 20 -4 44 -4 l43 0 58 123 58 122 59 -122 59 -123 44 0 44 0 -28 63 c-16 34
-62 132 -104 217 l-75 155 -25 -55z"/>
<path d="M12478 8603 c-25 -54 -71 -151 -102 -215 l-55 -118 47 1 47 0 54 115
c30 62 58 114 61 114 4 0 30 -52 60 -115 l53 -115 43 0 c24 0 44 4 44 9 0 11
-198 421 -203 421 -2 0 -24 -44 -49 -97z"/>
<path d="M4870 8480 l0 -210 40 0 40 0 2 168 3 167 168 3 167 2 0 40 0 40
-210 0 -210 0 0 -210z"/>
<path d="M5370 8579 c0 -146 12 -192 66 -245 80 -80 197 -85 281 -11 60 53 73
93 73 240 l0 127 -39 0 -39 0 -4 -129 -3 -130 -34 -35 c-42 -44 -89 -54 -138
-29 -67 33 -77 57 -81 198 l-4 125 -39 0 -39 0 0 -111z"/>
<path d="M5880 8480 l0 -210 205 0 205 0 0 40 0 40 -165 0 -165 0 0 170 0 170
-40 0 -40 0 0 -210z"/>
<path d="M6380 8480 l0 -210 205 0 205 0 0 40 0 40 -165 0 -165 0 0 170 0 170
-40 0 -40 0 0 -210z"/>
<path d="M7683 8683 c-34 -7 -80 -58 -87 -97 -9 -47 15 -101 56 -126 28 -17
50 -20 140 -20 109 0 138 -9 138 -45 0 -7 -7 -21 -16 -29 -13 -14 -52 -16
-275 -16 l-259 0 0 -40 0 -41 274 3 c261 3 276 4 303 24 15 12 34 38 42 59 13
32 13 43 0 78 -24 69 -52 81 -190 85 -116 4 -121 5 -131 28 -9 19 -8 28 7 44
16 18 31 20 152 20 l134 0 -3 38 -3 37 -130 1 c-71 1 -140 0 -152 -3z"/>
<path d="M8097 8683 c-4 -3 -7 -21 -7 -40 l0 -33 85 0 85 0 0 -170 0 -170 40
0 40 0 0 170 0 170 85 0 85 0 0 40 0 40 -203 0 c-112 0 -207 -3 -210 -7z"/>
<path d="M9247 8677 c-155 -49 -197 -246 -74 -354 49 -43 91 -53 225 -53 l112
0 0 40 0 40 -110 0 c-128 0 -170 13 -200 62 -25 42 -25 94 0 136 30 49 72 62
200 62 l110 0 0 40 0 40 -112 -1 c-62 0 -130 -6 -151 -12z"/>
<path d="M9600 8480 l0 -210 40 0 39 0 3 75 3 75 105 -75 c102 -73 106 -75
165 -75 l60 0 -50 36 c-28 19 -92 65 -142 101 -51 37 -93 69 -93 72 0 4 63 52
141 106 l140 100 -56 3 c-55 3 -57 2 -163 -73 l-107 -76 -3 75 -3 76 -39 0
-40 0 0 -210z"/>
<path d="M10894 8680 c-29 -11 -74 -67 -75 -93 -4 -70 9 -100 54 -127 26 -17
51 -20 139 -20 109 0 138 -9 138 -45 0 -7 -7 -21 -16 -29 -13 -14 -52 -16
-270 -16 l-254 0 0 -40 0 -40 264 0 c257 0 264 0 297 23 45 30 61 63 56 116
-4 32 -13 52 -36 75 -31 31 -32 31 -149 34 -64 2 -123 8 -129 14 -20 16 -15
56 6 68 11 5 76 10 145 10 l126 0 0 40 0 40 -137 -1 c-76 0 -147 -4 -159 -9z"/>
<path d="M11456 8676 c-80 -30 -136 -111 -136 -196 0 -66 18 -107 67 -151 51
-46 102 -63 163 -56 l48 6 23 -45 c23 -41 26 -44 66 -44 l42 0 -34 59 -35 59
35 52 c30 45 35 60 35 111 0 69 -16 113 -56 152 -59 59 -146 80 -218 53z m150
-97 c40 -33 55 -104 32 -154 -15 -34 -23 -32 -49 15 -20 36 -27 40 -61 40 -21
0 -38 -2 -38 -5 0 -3 14 -30 31 -61 17 -30 29 -57 26 -61 -13 -13 -82 10 -108
36 -51 52 -51 128 1 180 41 41 123 46 166 10z"/>
<path d="M11820 8563 c0 -147 13 -187 73 -240 84 -74 201 -69 281 11 54 53 66
99 66 245 l0 111 -40 0 c-35 0 -40 -3 -41 -22 -7 -247 -12 -266 -80 -301 -59
-31 -133 -4 -164 60 -11 22 -15 63 -15 147 l0 116 -40 0 -40 0 0 -127z"/>
<path d="M12820 8480 l0 -210 40 0 40 0 2 168 3 167 104 3 c80 2 109 -1 127
-13 26 -17 29 -31 14 -55 -6 -11 -34 -16 -93 -20 l-85 -5 67 -122 66 -122 42
-1 42 0 -45 79 c-24 43 -44 81 -44 84 0 2 17 7 38 11 83 13 127 113 82 184
-33 53 -68 62 -245 62 l-155 0 0 -210z"/>
<path d="M13330 8480 l0 -210 205 0 205 0 0 40 0 40 -165 0 -165 0 0 130 0
130 165 0 165 0 0 40 0 40 -205 0 -205 0 0 -210z"/>
<path d="M13830 8479 l0 -211 178 4 c201 3 220 9 279 86 62 82 53 192 -22 267
-54 55 -99 65 -284 65 l-151 0 0 -211z m353 108 c60 -39 79 -122 40 -175 -36
-49 -76 -62 -200 -62 l-113 0 0 131 0 131 123 -3 c96 -3 129 -8 150 -22z"/>
<path d="M5060 8480 l0 -40 115 0 115 0 0 40 0 40 -115 0 -115 0 0 -40z"/>
<path d="M6880 8480 l0 -40 210 0 210 0 0 40 0 40 -210 0 -210 0 0 -40z"/>
<path d="M10100 8480 l0 -40 210 0 210 0 0 40 0 40 -210 0 -210 0 0 -40z"/>
<path d="M13510 8480 l0 -40 115 0 115 0 0 40 0 40 -115 0 -115 0 0 -40z"/>
<path d="M11688 8006 c-47 -14 -102 -65 -129 -119 -32 -61 -24 -153 17 -203
50 -63 78 -78 148 -82 35 -2 81 1 101 8 48 16 40 21 -14 9 -104 -23 -214 35
-242 129 -24 83 22 181 104 223 49 25 147 36 200 21 47 -13 48 -6 2 14 -40 16
-134 17 -187 0z"/>
<path d="M10747 7964 c-14 -14 6 -24 49 -24 l44 0 0 -125 c0 -118 1 -125 20
-125 19 0 20 7 20 125 l0 125 45 0 c33 0 45 4 45 15 0 12 -19 15 -108 15 -60
0 -112 -3 -115 -6z"/>
<path d="M11012 7828 c3 -152 19 -192 28 -71 6 82 12 93 53 93 53 0 62 -12 67
-90 7 -92 24 -95 28 -5 3 79 -8 108 -49 126 -28 11 -43 10 -81 -6 -16 -6 -18
-1 -18 44 0 39 -4 51 -15 51 -13 0 -15 -20 -13 -142z"/>
<path d="M12133 7950 c-42 -25 -63 -68 -63 -126 0 -82 60 -144 140 -144 39 0
90 26 90 45 0 19 -10 19 -46 0 -39 -20 -63 -19 -101 5 -36 22 -60 82 -49 125
12 46 59 85 103 85 21 0 48 -7 60 -15 31 -22 43 2 13 27 -30 25 -105 24 -147
-2z"/>
<path d="M10110 7908 c0 -33 -3 -39 -12 -30 -7 7 -28 12 -48 12 -51 0 -80 -33
-80 -89 0 -73 73 -118 122 -74 17 15 18 15 18 0 0 -10 8 -17 20 -17 19 0 20 7
20 120 0 113 -1 120 -20 120 -17 0 -20 -7 -20 -42z m-22 -64 c41 -28 22 -94
-28 -94 -48 0 -66 54 -30 90 24 24 29 24 58 4z"/>
<path d="M10300 7830 l0 -120 25 0 c14 0 25 5 25 10 0 7 6 7 19 0 57 -30 121
11 121 78 0 56 -31 92 -79 92 -20 0 -42 -5 -49 -12 -9 -9 -12 -3 -12 30 0 38
-2 42 -25 42 l-25 0 0 -120z m115 24 c9 -4 21 -18 26 -32 19 -49 -43 -96 -79
-60 -20 20 -14 65 10 82 26 19 22 18 43 10z"/>
<path d="M11786 7899 c-11 -37 -28 -107 -33 -136 -11 -71 26 -120 64 -85 10 9
14 14 9 10 -15 -12 -44 -10 -52 4 -12 18 -7 89 10 153 8 32 13 61 11 64 -3 2
-6 -2 -9 -10z"/>
<path d="M8712 7758 c3 -129 4 -133 26 -136 21 -3 22 0 22 53 0 52 1 55 19 45
57 -30 121 11 121 78 0 56 -31 92 -79 92 -20 0 -42 -5 -49 -12 -9 -9 -12 -9
-12 0 0 7 -11 12 -25 12 l-26 0 3 -132z m128 82 c24 -24 25 -38 4 -68 -17 -24
-53 -29 -72 -10 -20 20 -14 65 10 82 29 20 34 20 58 -4z"/>
<path d="M8955 7865 c-35 -34 -34 -93 1 -129 36 -35 95 -36 129 -1 34 33 35
102 2 133 -34 32 -100 30 -132 -3z m97 -22 c36 -33 15 -93 -33 -93 -22 0 -32
6 -39 26 -14 35 -13 41 10 64 24 24 38 25 62 3z"/>
<path d="M9157 7808 c31 -101 29 -98 57 -98 20 0 25 8 35 55 7 30 17 53 22 50
5 -4 9 -12 9 -18 0 -7 5 -29 11 -49 8 -30 15 -38 33 -38 21 0 27 10 50 84 31
100 31 96 6 96 -19 0 -22 -7 -46 -105 -7 -28 -9 -25 -24 35 -14 57 -19 65 -41
68 -24 3 -27 -1 -39 -57 -7 -34 -16 -61 -20 -61 -4 0 -13 27 -19 60 -11 53
-15 60 -36 60 l-23 0 25 -82z"/>
<path d="M9453 7875 c-24 -17 -39 -71 -28 -104 18 -59 99 -81 143 -41 12 12
22 25 22 30 0 13 -33 13 -47 -1 -16 -16 -67 -7 -71 14 -3 15 5 17 62 17 64 0
66 1 66 25 0 39 -42 75 -87 75 -21 0 -48 -7 -60 -15z m78 -25 c31 -17 22 -30
-21 -30 -42 0 -52 12 -22 29 21 13 20 13 43 1z"/>
<path d="M9640 7800 c0 -83 1 -90 20 -90 17 0 20 7 20 51 0 60 13 89 40 89 13
0 20 7 20 20 0 22 -12 25 -41 10 -13 -7 -19 -7 -19 0 0 5 -9 10 -20 10 -19 0
-20 -7 -20 -90z"/>
<path d="M9781 7864 c-49 -62 -11 -154 62 -154 33 0 87 31 87 51 0 13 -44 11
-57 -2 -16 -16 -57 -7 -61 14 -3 15 5 17 64 17 l67 0 -7 33 c-8 44 -39 67 -91
67 -35 0 -48 -5 -64 -26z m90 -14 c31 -17 22 -30 -21 -30 -41 0 -49 7 -28 28
15 15 24 15 49 2z"/>
<path d="M10530 7841 c10 -27 26 -67 35 -87 14 -34 14 -42 0 -76 -19 -50 -19
-58 4 -58 14 0 31 29 72 126 30 70 56 131 57 135 2 5 -7 9 -20 9 -20 0 -27 -9
-42 -52 -11 -29 -22 -57 -26 -61 -4 -5 -16 18 -27 50 -17 50 -23 58 -46 61
l-27 3 20 -50z"/>
<path d="M11291 7876 c-54 -30 -67 -106 -26 -154 30 -36 66 -47 111 -32 39 13
50 47 12 35 -60 -18 -67 -17 -95 11 l-28 29 80 5 c90 6 99 15 70 70 -24 47
-77 62 -124 36z m77 -32 c40 -28 28 -44 -32 -44 -65 0 -76 11 -40 39 32 25 43
26 72 5z"/>
<path d="M11670 7848 c-23 -50 -25 -91 -7 -106 9 -8 11 -1 9 32 -2 23 3 59 12
79 21 51 9 47 -14 -5z"/>
<path d="M12394 7881 c-76 -33 -86 -149 -15 -186 75 -38 151 9 151 94 0 61
-80 115 -136 92z m80 -47 c27 -26 24 -81 -6 -106 -28 -25 -55 -22 -85 8 -44
44 -15 114 48 114 15 0 35 -7 43 -16z"/>
<path d="M12640 7880 c-8 -5 -25 -7 -38 -3 -23 5 -23 5 -20 -93 4 -117 20
-132 29 -26 6 82 14 95 55 90 29 -3 29 -4 34 -83 4 -62 8 -80 20 -80 12 0 16
16 18 70 3 76 13 95 48 95 31 0 37 -13 44 -95 3 -38 10 -70 15 -70 6 0 11 36
13 81 3 78 2 83 -24 103 -31 24 -49 26 -83 7 -20 -11 -28 -11 -50 0 -31 16
-41 17 -61 4z"/>
<path d="M12975 7876 c-44 -19 -55 -53 -55 -171 0 -87 3 -105 15 -105 12 0 15
13 15 55 l0 56 30 -16 c36 -19 53 -19 89 0 64 33 65 130 2 172 -39 26 -54 28
-96 9z m87 -43 c39 -35 10 -123 -42 -123 -29 0 -70 44 -70 75 0 54 71 85 112
48z"/>
<path d="M13216 7875 c-42 -22 -55 -44 -56 -91 0 -77 65 -123 130 -91 27 14
31 14 39 0 29 -52 44 82 16 137 -15 29 -60 60 -87 60 -7 0 -26 -7 -42 -15z
m89 -45 c38 -42 8 -120 -47 -120 -27 0 -68 45 -68 75 0 56 77 87 115 45z"/>
<path d="M13475 7880 c-11 -4 -30 -6 -43 -3 -23 5 -23 5 -20 -93 3 -115 20
-130 28 -24 5 75 15 90 60 90 45 0 55 -15 60 -90 6 -89 24 -96 28 -10 4 85 -2
107 -38 125 -32 17 -45 18 -75 5z"/>
<path d="M13620 7875 c0 -3 19 -42 41 -88 l42 -82 -17 -49 c-23 -63 -6 -86 22
-30 29 58 102 231 102 243 0 6 -6 11 -13 11 -7 0 -25 -29 -41 -65 -15 -36 -31
-65 -35 -65 -4 0 -21 29 -39 65 -18 37 -38 65 -47 65 -8 0 -15 -2 -15 -5z"/>
<path d="M6310 7118 c-60 -30 -89 -84 -97 -178 l-6 -70 -44 -20 c-54 -24 -52
-44 5 -48 l42 -3 0 -228 0 -227 -32 -9 c-18 -6 -34 -18 -36 -27 -3 -16 9 -18
137 -18 117 0 141 3 141 15 0 14 -56 35 -92 35 -17 0 -18 18 -18 230 l0 230
65 0 65 0 0 30 0 30 -65 0 -65 0 0 58 c1 118 36 182 100 182 26 0 33 -7 55
-51 14 -28 31 -49 38 -46 7 2 18 29 26 61 17 73 14 76 -94 76 -64 0 -90 -5
-125 -22z"/>
<path d="M10255 7121 c-72 -33 -104 -91 -105 -193 l0 -57 -45 -20 c-26 -11
-45 -27 -45 -35 0 -12 11 -16 45 -16 l45 0 0 -225 0 -225 -40 -16 c-22 -9 -40
-22 -40 -30 0 -11 28 -14 145 -14 120 0 145 2 145 15 0 14 -56 35 -92 35 -17
0 -18 18 -18 230 l0 230 65 0 65 0 0 30 0 30 -65 0 -65 0 0 70 c0 109 36 170
100 170 20 0 30 -10 50 -48 34 -65 52 -61 67 13 9 46 9 61 0 67 -25 16 -171 8
-212 -11z"/>
<path d="M14138 7123 c-78 -20 -76 -53 3 -53 l29 0 0 -111 c0 -102 -1 -111
-17 -104 -42 17 -131 17 -187 1 -76 -22 -129 -71 -156 -144 -19 -49 -21 -73
-18 -167 3 -90 8 -119 27 -158 33 -67 85 -100 167 -105 77 -5 120 17 159 81
l25 42 0 -31 c0 -17 3 -46 6 -64 7 -31 8 -32 46 -26 97 16 161 66 83 66 l-35
0 0 395 0 395 -37 -1 c-21 -1 -64 -8 -95 -16z m21 -317 c7 -5 11 -59 11 -169
0 -136 -3 -169 -19 -203 -27 -59 -63 -84 -122 -84 -40 0 -52 5 -75 30 -56 59
-77 182 -50 288 30 119 74 156 177 149 37 -2 71 -7 78 -11z"/>
<path d="M5846 7099 c-50 -39 -20 -109 47 -109 42 0 67 26 67 68 0 57 -64 80
-114 41z"/>
<path d="M6624 7094 c-44 -43 -14 -104 51 -104 45 0 68 21 68 60 0 65 -72 92
-119 44z"/>
<path d="M3780 7085 c-113 -32 -195 -107 -236 -218 -15 -42 -19 -78 -19 -187
0 -131 1 -137 31 -200 51 -106 122 -162 243 -190 68 -16 233 -9 284 13 36 15
37 18 36 64 0 73 -13 128 -28 128 -7 0 -24 -29 -37 -65 -34 -90 -39 -93 -129
-93 -128 1 -208 53 -264 173 -24 50 -26 66 -26 180 0 117 2 129 29 188 53 115
136 165 266 160 l75 -3 30 -82 c21 -58 35 -83 47 -83 13 0 17 15 23 85 4 46 5
91 2 99 -15 37 -231 57 -327 31z"/>
<path d="M10970 6725 l-144 -375 -40 -13 c-23 -8 -42 -21 -44 -30 -3 -15 10
-17 122 -17 117 0 126 1 126 19 0 14 -12 22 -45 30 -25 6 -45 14 -45 18 0 3
16 51 36 105 l36 98 137 0 137 0 33 -92 c19 -51 36 -98 38 -104 3 -7 -15 -18
-39 -26 -24 -8 -44 -22 -46 -31 -3 -15 12 -17 143 -17 134 0 146 1 143 18 -2
10 -20 22 -45 30 l-41 13 -143 375 c-107 276 -148 374 -160 374 -12 0 -53 -97
-159 -375z m214 7 c20 -52 36 -98 36 -103 0 -5 -49 -9 -110 -9 -60 0 -110 3
-110 8 0 4 23 69 50 144 28 75 50 143 50 151 0 39 16 21 31 -35 10 -35 34
-105 53 -156z"/>
<path d="M5418 6989 c-36 -18 -38 -22 -38 -69 0 -49 0 -49 -45 -69 -26 -11
-45 -27 -45 -35 0 -12 11 -16 45 -16 l45 0 1 -202 c0 -130 4 -216 12 -238 28
-80 128 -103 227 -52 29 15 52 31 49 36 -2 5 -32 8 -66 7 -34 -1 -71 3 -82 8
-32 18 -41 74 -41 264 l0 177 85 0 85 0 0 30 0 30 -85 0 -85 0 0 75 c0 84 -3
86 -62 54z"/>
<path d="M8168 6988 c-36 -21 -38 -25 -38 -69 0 -47 -1 -48 -46 -68 -55 -25
-54 -45 3 -49 l41 -3 4 -212 c4 -234 10 -262 68 -292 37 -19 110 -19 157 0 37
16 73 42 73 54 0 3 -34 6 -76 6 -72 0 -78 2 -98 28 -19 26 -21 43 -25 222 l-3
194 88 3 c87 3 89 3 89 28 0 25 -2 25 -87 28 l-88 3 0 74 c0 84 -3 87 -62 53z"/>
<path d="M11688 6988 c-36 -21 -38 -25 -38 -69 0 -47 -1 -48 -46 -68 -55 -25
-54 -45 3 -49 l41 -3 4 -212 c4 -234 10 -262 68 -292 37 -19 110 -19 157 0 37
16 73 42 73 54 0 3 -34 6 -76 6 -72 0 -78 2 -98 28 -19 26 -21 43 -25 222 l-3
194 88 3 c87 3 89 3 89 28 0 25 -2 25 -87 28 l-88 3 0 74 c0 84 -3 87 -62 53z"/>
<path d="M12138 6989 c-36 -18 -38 -22 -38 -68 0 -48 0 -48 -45 -65 -32 -13
-45 -23 -45 -37 0 -16 7 -19 45 -19 l45 0 0 -205 c0 -218 6 -251 49 -289 15
-13 41 -21 79 -24 48 -3 66 1 111 25 30 15 55 32 55 37 1 5 -27 9 -61 7 -128
-5 -133 5 -133 259 l0 190 85 0 85 0 0 30 0 30 -85 0 -85 0 0 75 c0 84 -3 86
-62 54z"/>
<path d="M4416 6855 c-53 -19 -112 -79 -131 -134 -38 -111 -28 -251 25 -334
73 -116 266 -144 375 -55 45 38 34 52 -25 32 -69 -24 -168 -16 -212 18 -42 32
-70 87 -76 150 l-4 48 178 2 179 3 3 55 c6 101 -34 175 -113 211 -48 22 -143
24 -199 4z m155 -47 c29 -24 39 -45 49 -98 17 -90 18 -90 -127 -90 l-125 0 7
48 c16 106 56 152 134 152 26 0 54 -6 62 -12z"/>
<path d="M4919 6855 c-57 -15 -69 -22 -69 -41 0 -9 11 -14 35 -14 l35 0 0
-229 0 -228 -32 -9 c-18 -6 -34 -17 -36 -27 -3 -15 9 -17 128 -17 119 0 131 2
128 17 -2 10 -19 22 -43 29 l-40 11 -3 154 c-3 184 0 208 37 248 27 29 33 31
105 31 42 0 76 3 76 6 0 4 -5 24 -12 45 -10 35 -15 39 -43 39 -40 0 -114 -48
-140 -92 l-20 -33 -3 63 c-3 60 -4 62 -30 61 -15 0 -48 -7 -73 -14z"/>
<path d="M5830 6852 c-67 -22 -82 -52 -26 -52 l36 0 0 -229 0 -228 -32 -9
c-18 -6 -34 -17 -36 -27 -3 -15 9 -17 122 -17 101 0 126 3 126 14 0 8 -18 21
-40 30 l-40 16 0 260 0 260 -27 -1 c-16 0 -53 -8 -83 -17z"/>
<path d="M6610 6852 c-68 -22 -80 -49 -23 -54 l38 -3 3 -223 2 -222 -40 -16
c-22 -9 -40 -22 -40 -30 0 -11 25 -14 126 -14 113 0 125 2 122 17 -2 10 -18
21 -36 27 l-32 9 0 263 0 264 -32 -1 c-18 0 -58 -8 -88 -17z"/>
<path d="M7080 6858 c-19 -7 -55 -33 -81 -58 -56 -54 -79 -119 -79 -225 0
-186 95 -295 257 -295 79 0 173 47 173 87 0 16 0 16 -43 -2 -57 -24 -133 -19
-183 10 -64 38 -96 110 -96 216 1 161 49 229 160 229 l49 0 25 -67 c14 -39 31
-69 40 -71 18 -4 34 36 44 107 6 44 5 48 -22 60 -38 18 -200 23 -244 9z"/>
<path d="M7580 6847 c-74 -26 -78 -33 -57 -112 19 -70 43 -68 69 5 12 30 25
61 31 68 11 14 100 16 126 2 27 -14 51 -83 51 -145 l0 -54 -47 -6 c-185 -22
-233 -41 -265 -105 -52 -103 19 -220 134 -220 66 0 120 29 152 82 l26 43 0
-31 c0 -17 3 -46 6 -63 8 -37 30 -39 109 -12 63 22 72 48 18 53 l-38 3 0 205
c0 178 -3 209 -18 238 -39 72 -170 93 -297 49z m218 -339 c2 -37 -2 -68 -12
-87 -55 -105 -206 -92 -206 18 0 78 29 108 115 121 96 15 100 13 103 -52z"/>
<path d="M8675 6854 c-89 -33 -140 -116 -152 -244 -16 -186 75 -315 232 -328
80 -6 141 10 190 50 45 38 34 52 -25 32 -69 -24 -168 -16 -212 18 -42 32 -70
87 -76 150 l-4 48 178 2 179 3 3 55 c6 101 -34 175 -113 211 -49 22 -143 24
-200 3z m156 -46 c29 -24 39 -45 49 -98 17 -90 18 -90 -127 -90 l-125 0 7 48
c16 106 56 152 134 152 26 0 54 -6 62 -12z"/>
<path d="M9584 6854 c-54 -19 -111 -75 -138 -133 -31 -68 -30 -226 2 -296 30
-65 56 -93 117 -121 66 -31 170 -33 235 -3 103 46 150 131 150 272 0 97 -10
137 -49 198 -40 64 -101 93 -201 96 -48 2 -90 -3 -116 -13z m176 -56 c63 -43
98 -157 85 -278 -9 -84 -30 -134 -68 -166 -27 -23 -38 -26 -89 -22 -50 4 -63
9 -93 38 -45 43 -65 109 -65 210 0 156 52 240 149 240 33 0 58 -7 81 -22z"/>
<path d="M12660 6861 c-118 -36 -170 -124 -170 -287 0 -185 83 -282 250 -292
68 -3 80 -1 129 25 84 44 101 91 21 59 -50 -20 -152 -21 -188 -2 -58 30 -100
98 -104 167 l-3 44 178 3 177 2 1 38 c4 141 -28 206 -118 238 -41 14 -133 17
-173 5z m143 -61 c30 -23 47 -74 47 -137 l0 -43 -125 0 -125 0 0 33 c0 55 21
110 52 139 38 36 111 39 151 8z"/>
<path d="M13135 6852 c-73 -21 -88 -49 -28 -54 l38 -3 3 -223 2 -222 -40 -16
c-22 -9 -40 -22 -40 -30 0 -11 24 -14 120 -14 103 0 120 2 120 16 0 9 -13 21
-30 27 l-30 11 0 176 c0 171 1 176 25 213 14 20 39 44 55 52 38 20 100 19 129
-1 43 -30 53 -76 59 -261 l5 -173 -37 -15 c-20 -8 -36 -22 -36 -30 0 -12 21
-15 121 -15 108 0 120 2 117 17 -2 10 -18 21 -36 27 l-32 9 0 146 c-1 249 -21
329 -94 362 -46 21 -120 25 -163 8 -34 -13 -70 -44 -94 -84 l-19 -30 0 63 c0
61 0 62 -27 61 -16 0 -55 -8 -88 -17z"/>
<path d="M14552 6849 c-35 -11 -66 -27 -69 -35 -3 -8 0 -42 7 -74 16 -77 39
-81 65 -12 32 85 39 92 99 92 48 0 57 -4 79 -29 26 -31 42 -111 31 -155 -6
-26 -10 -27 -134 -42 -68 -8 -127 -33 -160 -68 -22 -24 -25 -37 -25 -96 0 -59
3 -72 25 -95 37 -39 73 -55 128 -55 59 0 105 27 142 84 l25 39 3 -29 c1 -16 5
-44 8 -63 5 -33 6 -33 45 -27 57 9 119 36 119 51 0 9 -15 15 -37 17 l-38 3 -5
212 c-5 194 -7 214 -26 240 -47 65 -158 81 -282 42z m208 -344 c0 -105 -39
-155 -120 -155 -60 0 -90 33 -90 100 0 62 28 95 86 105 22 3 46 8 54 10 8 1
27 3 43 4 27 1 27 1 27 -64z"/>
<path d="M15101 6854 c-64 -17 -71 -21 -71 -40 0 -9 11 -14 35 -14 l35 0 0
-229 0 -228 -32 -9 c-18 -6 -34 -17 -36 -27 -3 -15 9 -17 117 -17 103 0 121 2
121 16 0 8 -16 22 -35 30 l-35 14 0 163 c0 149 2 165 23 202 44 79 142 111
199 66 39 -31 48 -83 48 -269 l0 -170 -30 -11 c-16 -5 -30 -17 -30 -25 0 -14
18 -16 121 -16 107 0 120 2 117 17 -2 9 -19 22 -38 28 l-35 12 -5 204 c-4 181
-7 208 -25 238 -30 51 -67 74 -128 79 -77 6 -119 -11 -172 -70 l-45 -50 0 61
c0 70 -2 71 -99 45z"/>
<path d="M15907 6856 c-20 -8 -52 -25 -71 -40 -85 -65 -118 -242 -70 -379 35
-100 119 -157 232 -157 73 0 116 16 155 58 34 35 22 50 -22 27 -35 -17 -117
-20 -158 -4 -68 25 -114 101 -121 199 -6 95 13 174 53 219 31 34 37 36 97 36
l63 0 24 -67 c29 -85 54 -92 69 -20 26 117 27 110 -30 127 -63 18 -170 19
-221 1z"/>
<path d="M16459 6856 c-61 -21 -96 -54 -126 -114 -26 -52 -28 -67 -28 -167 0
-96 3 -116 24 -155 50 -96 107 -131 221 -137 67 -4 81 -2 129 24 85 43 101 91
21 59 -49 -20 -139 -21 -183 -2 -60 25 -102 91 -109 171 l-3 40 176 3 c173 2
177 3 183 25 17 64 -9 168 -51 209 -16 15 -45 34 -65 42 -45 19 -139 20 -189
2z m159 -58 c29 -32 42 -71 42 -129 l0 -49 -126 0 -127 0 6 50 c13 105 53 149
138 150 35 0 51 -5 67 -22z"/>
<path d="M10810 5685 c0 -104 2 -125 15 -125 12 0 15 13 15 55 0 49 3 57 25
67 38 17 55 -4 55 -68 0 -30 5 -54 10 -54 16 0 12 103 -6 128 -17 24 -53 29
-72 10 -9 -9 -12 2 -12 50 0 48 -3 62 -15 62 -13 0 -15 -21 -15 -125z"/>
<path d="M8696 5723 c-16 -43 -32 -82 -36 -86 -4 -4 -15 28 -24 73 -10 44 -22
80 -27 80 -5 0 -9 -4 -9 -9 0 -12 40 -191 47 -211 3 -8 20 24 39 75 19 49 36
91 38 93 2 1 18 -38 37 -87 18 -50 36 -87 40 -83 6 6 49 196 49 215 0 4 -4 7
-9 7 -5 0 -17 -36 -27 -80 -9 -44 -19 -78 -22 -75 -3 3 -20 41 -37 85 l-30 80
-29 -77z"/>
<path d="M10430 5740 c0 -23 -4 -30 -20 -30 -11 0 -20 -4 -20 -10 0 -5 9 -10
20 -10 18 0 20 -7 20 -65 0 -37 4 -65 10 -65 6 0 10 28 10 64 0 59 2 65 23 69
l22 4 -22 8 c-17 5 -23 15 -23 36 0 16 -4 29 -10 29 -5 0 -10 -13 -10 -30z"/>
<path d="M10690 5740 c0 -23 -4 -30 -20 -30 -11 0 -20 -4 -20 -10 0 -5 9 -10
20 -10 18 0 20 -7 20 -65 0 -37 4 -65 10 -65 6 0 10 28 10 65 0 58 2 65 20 65
11 0 20 5 20 10 0 6 -9 10 -20 10 -16 0 -20 7 -20 30 0 17 -4 30 -10 30 -5 0
-10 -13 -10 -30z"/>
<path d="M11430 5740 c0 -23 -4 -30 -20 -30 -11 0 -20 -4 -20 -10 0 -5 9 -10
20 -10 18 0 20 -7 20 -65 0 -37 4 -65 10 -65 6 0 10 28 10 65 0 58 2 65 20 65
11 0 20 5 20 10 0 6 -9 10 -20 10 -16 0 -20 7 -20 30 0 17 -4 30 -10 30 -5 0
-10 -13 -10 -30z"/>
<path d="M11020 5750 c0 -5 5 -10 10 -10 6 0 10 5 10 10 0 6 -4 10 -10 10 -5
0 -10 -4 -10 -10z"/>
<path d="M8942 5703 c-21 -8 -43 -61 -36 -87 12 -48 79 -71 120 -42 24 18 13
31 -14 17 -28 -15 -48 -14 -66 5 -28 27 -18 34 50 34 63 0 65 1 59 23 -13 45
-67 69 -113 50z m69 -23 c38 -21 23 -40 -31 -40 -52 0 -60 8 -34 34 18 19 38
20 65 6z"/>
<path d="M9250 5595 c0 -70 4 -115 10 -115 6 0 10 23 10 50 0 47 1 50 19 40
53 -28 111 7 111 65 0 56 -72 97 -109 63 -11 -10 -14 -10 -18 0 -14 38 -23 -2
-23 -103z m112 78 c22 -20 23 -51 1 -75 -22 -25 -59 -23 -77 4 -21 30 -20 44
4 68 24 24 47 25 72 3z"/>
<path d="M9470 5633 c0 -58 3 -73 15 -73 11 0 15 13 15 54 0 54 17 85 40 71 5
-3 10 0 10 8 0 10 -11 14 -40 13 l-40 -1 0 -72z"/>
<path d="M9622 5687 c-13 -14 -22 -36 -22 -54 0 -60 86 -96 125 -53 16 17 16
20 2 20 -9 0 -19 -4 -22 -10 -10 -16 -51 -11 -68 8 -24 26 -13 32 55 32 49 0
58 3 58 18 0 28 -42 62 -76 62 -19 0 -39 -9 -52 -23z m91 -15 c22 -24 13 -32
-40 -32 -44 0 -55 14 -31 38 18 18 53 15 71 -6z"/>
<path d="M9826 5694 c-26 -26 -18 -44 29 -64 46 -20 58 -43 29 -54 -9 -4 -28
1 -41 10 -28 18 -42 12 -23 -11 15 -18 71 -20 88 -3 25 25 14 54 -28 71 -46
18 -55 47 -15 47 14 0 25 -4 25 -10 0 -5 5 -10 10 -10 16 0 11 27 -6 34 -27
10 -52 7 -68 -10z"/>
<path d="M10005 5685 c-14 -13 -25 -36 -25 -50 0 -57 78 -95 124 -60 27 20 12
32 -19 15 -29 -16 -75 -1 -75 25 0 12 13 15 60 15 53 0 60 2 60 20 0 56 -82
79 -125 35z m87 -12 c29 -26 22 -33 -32 -33 -51 0 -64 12 -38 38 17 17 48 15
70 -5z"/>
<path d="M10210 5635 c0 -43 4 -75 10 -75 6 0 10 22 10 48 0 37 5 54 21 68 33
30 53 8 57 -60 4 -75 22 -72 22 3 0 41 -5 65 -16 75 -18 19 -55 21 -72 4 -9
-9 -12 -9 -12 0 0 7 -4 12 -10 12 -6 0 -10 -32 -10 -75z"/>
<path d="M11020 5635 c0 -43 4 -75 10 -75 6 0 10 32 10 75 0 43 -4 75 -10 75
-6 0 -10 -32 -10 -75z"/>
<path d="M11126 5694 c-26 -26 -18 -44 29 -64 46 -20 58 -43 29 -54 -9 -4 -28
1 -41 10 -28 18 -42 12 -23 -11 15 -18 71 -20 88 -3 25 25 14 54 -28 71 -46
18 -55 47 -15 47 14 0 25 -4 25 -10 0 -5 5 -10 10 -10 16 0 11 27 -6 34 -27
10 -52 7 -68 -10z"/>
<path d="M11582 5703 c-7 -3 -19 -18 -28 -35 -13 -25 -13 -35 -3 -59 32 -79
143 -59 143 26 0 57 -55 91 -112 68z m72 -26 c38 -28 13 -97 -35 -97 -25 0
-49 27 -49 55 0 46 47 69 84 42z"/>
<path d="M4387 3852 c-11 -12 -17 -36 -17 -70 0 -45 -3 -52 -20 -52 -11 0 -20
-4 -20 -10 0 -5 9 -10 20 -10 18 0 20 -7 20 -85 0 -69 3 -85 15 -85 12 0 15
16 15 85 0 84 0 85 25 85 14 0 25 5 25 10 0 6 -11 10 -25 10 -24 0 -25 3 -25
55 0 52 1 55 25 55 16 0 25 6 25 15 0 21 -43 19 -63 -3z"/>
<path d="M6290 3790 c0 -72 -9 -97 -24 -71 -11 17 -59 22 -88 10 -90 -37 -66
-189 31 -189 20 0 47 7 59 16 20 14 22 14 22 0 0 -9 5 -16 10 -16 6 0 10 62
10 165 0 103 -4 165 -10 165 -6 0 -10 -33 -10 -80z m-29 -98 c47 -39 17 -122
-44 -122 -63 0 -90 70 -45 117 26 28 58 29 89 5z"/>
<path d="M7310 3705 c0 -140 2 -165 15 -165 12 0 15 13 15 59 0 48 5 65 23 87
18 21 29 26 49 21 30 -8 38 -30 38 -109 0 -32 5 -58 10 -58 17 0 12 156 -5
174 -25 24 -52 28 -85 11 l-30 -16 0 81 c0 64 -3 80 -15 80 -13 0 -15 -25 -15
-165z"/>
<path d="M13738 3859 c-14 -8 -18 -23 -18 -65 0 -47 -3 -57 -20 -61 -11 -3
-20 -9 -20 -13 0 -4 9 -10 20 -13 18 -5 20 -14 20 -86 0 -106 18 -105 22 2 3
81 3 82 31 85 15 2 27 7 27 12 0 5 -12 10 -27 12 -22 2 -29 9 -31 32 -5 45 6
74 30 78 30 4 36 28 6 28 -12 0 -31 -5 -40 -11z"/>
<path d="M15427 3852 c-11 -12 -17 -36 -17 -70 0 -45 -3 -52 -20 -52 -11 0
-20 -4 -20 -10 0 -5 9 -10 20 -10 18 0 20 -7 20 -85 0 -69 3 -85 15 -85 12 0
15 16 15 85 0 84 0 85 25 85 14 0 25 5 25 10 0 6 -11 10 -25 10 -24 0 -25 3
-25 55 0 52 1 55 25 55 16 0 25 6 25 15 0 21 -43 19 -63 -3z"/>
<path d="M7930 3690 l0 -150 30 0 30 0 0 60 0 60 55 0 c54 0 55 0 55 30 0 30
-1 30 -55 30 -54 0 -55 0 -55 30 0 30 1 30 55 30 54 0 55 0 55 30 l0 30 -85 0
-85 0 0 -150z"/>
<path d="M8160 3738 c0 -158 32 -203 138 -195 89 6 111 47 112 210 l0 87 -35
0 -35 0 0 -110 c0 -100 -2 -110 -20 -120 -33 -18 -73 -8 -87 20 -7 15 -13 63
-13 118 l0 92 -30 0 -30 0 0 -102z"/>
<path d="M8470 3690 l0 -150 85 0 85 0 0 30 c0 30 -1 30 -55 30 l-55 0 0 120
0 120 -30 0 -30 0 0 -150z"/>
<path d="M8700 3690 l0 -150 85 0 85 0 0 30 c0 30 -1 30 -55 30 l-55 0 0 120
0 120 -30 0 -30 0 0 -150z"/>
<path d="M9134 3822 c-37 -24 -50 -63 -32 -100 10 -20 28 -32 76 -48 95 -32
115 -62 56 -84 -31 -12 -74 4 -81 30 -4 14 -14 20 -34 20 -24 0 -29 -4 -29
-24 0 -15 12 -34 31 -50 25 -22 41 -26 91 -26 53 0 63 3 89 29 32 32 38 75 16
105 -8 10 -45 29 -83 41 -60 19 -69 26 -69 46 0 20 6 24 37 27 29 2 40 -2 50
-17 8 -13 23 -21 40 -21 35 0 36 19 5 56 -32 37 -117 45 -163 16z"/>
<path d="M9360 3810 c0 -29 2 -30 45 -30 l45 0 0 -120 0 -120 30 0 30 0 0 120
0 120 40 0 c38 0 40 2 40 30 l0 30 -115 0 -115 0 0 -30z"/>
<path d="M9695 3723 c-27 -65 -54 -133 -62 -150 l-13 -33 34 0 c30 0 35 4 41
30 6 29 8 30 70 30 61 0 63 -1 74 -30 8 -24 16 -30 40 -30 17 0 31 3 31 8 0 4
-27 70 -58 147 -51 125 -60 140 -83 143 -24 3 -29 -5 -74 -115z m98 -25 l16
-48 -40 0 c-45 0 -45 0 -23 64 18 53 25 51 47 -16z"/>
<path d="M10030 3822 c-39 -20 -80 -89 -80 -133 0 -42 42 -110 80 -130 65 -35
145 -19 189 37 29 37 27 44 -14 44 -19 0 -35 -5 -35 -10 0 -16 -58 -38 -85
-32 -68 13 -93 108 -43 159 33 33 77 35 118 5 29 -22 80 -30 80 -13 0 16 -42
61 -70 76 -39 20 -98 19 -140 -3z"/>
<path d="M10300 3690 l0 -150 30 0 30 0 0 65 c0 36 3 65 8 65 4 0 27 -29 52
-65 42 -60 48 -65 83 -65 20 0 37 2 37 6 0 3 -25 36 -56 75 l-55 69 47 63 c26
34 52 68 57 75 7 9 0 12 -29 12 -37 0 -42 -4 -84 -65 -25 -36 -48 -65 -52 -65
-5 0 -8 29 -8 65 l0 65 -30 0 -30 0 0 -150z"/>
<path d="M10804 3830 c-28 -11 -54 -48 -54 -76 0 -36 32 -63 100 -87 52 -17
66 -27 68 -44 7 -48 -83 -50 -108 -3 -11 21 -70 29 -70 10 0 -26 32 -68 60
-80 43 -18 136 -8 160 16 56 56 25 123 -68 150 -72 21 -85 30 -71 55 14 27 74
26 89 -1 7 -13 21 -20 40 -20 28 0 29 1 18 30 -5 17 -23 37 -39 45 -31 16 -92
19 -125 5z"/>
<path d="M11120 3822 c-50 -25 -80 -75 -80 -132 0 -57 30 -107 80 -132 27 -14
60 -18 138 -18 l102 0 0 26 c0 23 -3 26 -30 22 -16 -3 -30 -4 -30 -3 0 0 9 18
20 40 25 49 25 78 0 130 -36 75 -125 105 -200 67z m123 -62 c34 -27 43 -70 23
-109 -30 -57 -85 -67 -135 -25 -86 72 24 203 112 134z"/>
<path d="M11400 3730 c0 -63 5 -120 12 -135 16 -35 57 -55 112 -55 36 0 52 6
78 29 l33 29 3 121 4 121 -31 0 -31 0 0 -103 c0 -114 -10 -137 -63 -137 -48 0
-57 21 -57 136 l0 104 -30 0 -30 0 0 -110z"/>
<path d="M11755 3723 c-27 -65 -54 -133 -62 -150 l-13 -33 34 0 c30 0 35 4 41
30 6 29 8 30 70 30 61 0 63 -1 74 -30 8 -24 16 -30 40 -30 17 0 31 3 31 8 0 4
-27 70 -58 147 -51 125 -60 140 -83 143 -24 3 -29 -5 -74 -115z m98 -25 l16
-48 -40 0 c-45 0 -45 0 -23 64 18 53 25 51 47 -16z"/>
<path d="M12020 3691 l0 -151 30 0 c29 0 30 1 30 50 0 28 4 50 9 50 5 0 23
-22 41 -50 30 -46 35 -50 72 -50 l40 0 -34 43 c-52 64 -52 65 -19 93 40 33 43
89 7 131 -21 25 -31 28 -100 31 l-76 4 0 -151z m135 74 c22 -34 2 -65 -40 -65
-34 0 -35 1 -35 38 0 21 3 42 7 46 13 13 56 1 68 -19z"/>
<path d="M12280 3690 l0 -150 85 0 85 0 0 30 c0 30 -1 30 -55 30 -54 0 -55 0
-55 30 0 30 1 30 55 30 54 0 55 0 55 30 0 30 -1 30 -55 30 -54 0 -55 0 -55 30
0 30 1 30 55 30 54 0 55 0 55 30 l0 30 -85 0 -85 0 0 -150z"/>
<path d="M12520 3689 l0 -152 70 5 c115 9 164 59 157 160 -5 92 -63 138 -172
138 l-55 0 0 -151z m145 66 c54 -53 18 -155 -55 -155 l-30 0 0 90 0 90 30 0
c19 0 40 -9 55 -25z"/>
<path d="M5348 3773 c-2 -31 -7 -39 -25 -41 -13 -2 -23 -7 -23 -12 0 -5 10
-10 23 -12 20 -3 22 -9 25 -85 2 -46 7 -83 12 -83 5 0 10 37 12 83 3 76 5 82
26 85 12 2 22 7 22 12 0 5 -10 10 -22 12 -19 2 -24 10 -26 41 -2 20 -7 37 -12
37 -5 0 -10 -17 -12 -37z"/>
<path d="M5500 3770 c0 -33 -3 -40 -20 -40 -11 0 -20 -4 -20 -10 0 -5 9 -10
20 -10 18 0 20 -7 20 -85 0 -69 3 -85 15 -85 12 0 15 16 15 85 0 84 0 85 25
85 31 0 33 17 3 22 -19 2 -24 10 -26 41 -5 53 -32 51 -32 -3z"/>
<path d="M6406 3803 c-12 -12 -6 -33 9 -33 8 0 15 6 15 14 0 17 -14 28 -24 19z"/>
<path d="M7178 3773 c-2 -31 -7 -39 -25 -41 -13 -2 -23 -7 -23 -12 0 -5 10
-10 23 -12 20 -3 22 -9 25 -85 2 -46 7 -83 12 -83 5 0 10 37 12 83 3 76 5 82
26 85 12 2 22 7 22 12 0 5 -10 10 -22 12 -19 2 -24 10 -26 41 -2 20 -7 37 -12
37 -5 0 -10 -17 -12 -37z"/>
<path d="M4570 3733 c-30 -11 -60 -47 -66 -79 -17 -93 99 -153 167 -85 73 73
-5 199 -101 164z m78 -43 c46 -43 15 -120 -48 -120 -65 0 -94 79 -44 119 34
27 64 27 92 1z"/>
<path d="M4822 3724 c-12 -8 -22 -10 -22 -5 0 6 -7 11 -15 11 -12 0 -15 -17
-15 -95 0 -78 3 -95 15 -95 11 0 15 13 15 55 0 70 16 105 47 105 17 0 24 5 21
17 -4 23 -20 26 -46 7z"/>
<path d="M5073 3705 c-32 -32 -35 -39 -30 -78 10 -74 87 -112 145 -71 20 14
22 14 22 0 0 -9 7 -16 15 -16 12 0 15 17 15 95 0 75 -3 95 -14 95 -8 0 -16 -5
-18 -12 -3 -8 -11 -7 -28 5 -37 26 -68 21 -107 -18z m112 -20 c28 -27 31 -45
14 -78 -16 -30 -28 -37 -66 -37 -60 0 -83 70 -38 115 31 32 59 32 90 0z"/>
<path d="M5678 3725 c-35 -20 -48 -44 -48 -90 0 -81 95 -124 157 -71 33 29 25
46 -11 22 -14 -9 -36 -16 -48 -16 -29 0 -68 26 -68 46 0 11 18 14 86 14 l86 0
-7 28 c-15 63 -92 98 -147 67z m90 -31 c42 -29 28 -44 -43 -44 -69 0 -78 7
-45 40 24 24 57 26 88 4z"/>
<path d="M5950 3723 c-17 -12 -25 -13 -28 -5 -2 7 -10 12 -18 12 -11 0 -14
-20 -14 -95 0 -74 3 -95 14 -95 9 0 15 20 19 67 4 53 10 71 27 85 53 43 80 13
80 -86 0 -54 3 -66 16 -66 14 0 16 12 12 81 -3 70 -6 83 -27 100 -29 23 -49
24 -81 2z"/>
<path d="M6568 3724 c-16 -8 -28 -10 -28 -4 0 5 -7 10 -15 10 -12 0 -15 -17
-15 -95 0 -78 3 -95 15 -95 12 0 15 13 15 60 0 51 4 65 25 85 51 51 78 28 83
-69 5 -100 22 -98 22 2 0 83 -4 93 -37 111 -27 14 -32 14 -65 -5z"/>
<path d="M6778 3711 c-28 -25 -33 -36 -33 -76 0 -39 5 -51 28 -71 33 -28 82
-32 115 -8 21 15 22 14 22 -14 0 -72 -77 -108 -124 -57 -31 34 -49 33 -34 -1
14 -29 56 -54 92 -54 14 0 40 13 58 29 l33 29 3 121 c3 102 1 121 -11 121 -9
0 -17 -5 -19 -12 -3 -8 -11 -7 -28 5 -35 25 -65 21 -102 -12z m107 -26 c46
-45 19 -115 -45 -115 -64 0 -91 70 -45 115 31 32 59 32 90 0z"/>
<path d="M7591 3727 c-88 -51 -54 -187 47 -187 29 0 47 7 68 27 32 30 19 44
-18 19 -31 -22 -74 -20 -98 4 -34 34 -24 40 65 40 78 0 85 2 85 20 0 57 -97
107 -149 77z m97 -44 l27 -28 -69 -3 c-37 -2 -71 0 -74 3 -11 10 42 55 65 55
13 0 36 -12 51 -27z"/>
<path d="M13010 3733 c-56 -22 -83 -89 -56 -141 31 -60 107 -72 154 -25 24 24
25 28 9 31 -10 2 -26 -3 -36 -12 -40 -36 -111 -4 -111 49 0 30 41 75 68 75 11
0 31 -9 46 -21 37 -29 54 -19 25 14 -24 27 -71 41 -99 30z"/>
<path d="M13238 3724 c-85 -46 -50 -184 46 -184 44 0 94 42 101 85 10 54 -46
116 -103 115 -9 -1 -29 -7 -44 -16z m97 -39 c30 -30 31 -54 4 -89 -15 -19 -30
-26 -53 -26 -64 0 -92 74 -46 120 27 27 66 25 95 -5z"/>
<path d="M13510 3723 c-17 -12 -25 -13 -28 -5 -2 7 -10 12 -18 12 -11 0 -14
-20 -14 -95 0 -74 3 -95 14 -95 9 0 15 20 19 67 4 53 10 71 27 85 53 43 80 13
80 -86 0 -54 3 -66 16 -66 14 0 16 12 12 81 -3 70 -6 83 -27 100 -29 23 -49
24 -81 2z"/>
<path d="M13898 3725 c-35 -20 -48 -44 -48 -90 0 -81 95 -124 157 -71 33 29
25 46 -11 22 -14 -9 -36 -16 -48 -16 -29 0 -68 26 -68 46 0 11 18 14 86 14
l86 0 -7 28 c-15 63 -92 98 -147 67z m90 -31 c42 -29 28 -44 -43 -44 -69 0
-78 7 -45 40 24 24 57 26 88 4z"/>
<path d="M14162 3724 c-12 -8 -22 -10 -22 -5 0 6 -7 11 -15 11 -12 0 -15 -17
-15 -95 0 -78 3 -95 15 -95 11 0 15 13 15 55 0 70 16 105 47 105 17 0 24 5 21
17 -4 23 -20 26 -46 7z"/>
<path d="M14320 3733 c-28 -10 -59 -46 -65 -75 -20 -90 92 -154 162 -94 35 30
23 46 -16 23 -16 -9 -41 -17 -55 -17 -26 0 -69 37 -60 52 3 4 41 8 85 8 75 0
79 1 79 23 -1 55 -74 100 -130 80z m80 -48 c13 -14 21 -27 18 -30 -3 -3 -37
-5 -74 -3 l-69 3 27 28 c34 34 67 35 98 2z"/>
<path d="M14578 3726 c-16 -8 -28 -11 -28 -5 0 5 -7 9 -15 9 -12 0 -15 -17
-15 -95 0 -78 3 -95 15 -95 12 0 15 13 15 59 0 63 25 111 59 111 32 0 41 -22
41 -97 0 -58 3 -73 15 -73 12 0 15 15 15 79 0 74 -2 81 -26 100 -32 25 -40 25
-76 7z"/>
<path d="M14794 3721 c-41 -25 -59 -75 -43 -118 22 -64 104 -84 156 -39 35 30
23 46 -16 23 -52 -31 -96 -17 -114 36 -10 28 9 63 43 77 28 12 34 11 60 -9 49
-36 70 -23 27 17 -34 32 -76 37 -113 13z"/>
<path d="M15041 3727 c-88 -51 -54 -187 47 -187 29 0 47 7 68 27 32 30 19 44
-18 19 -31 -22 -74 -20 -98 4 -34 34 -24 40 65 40 78 0 85 2 85 20 0 57 -97
107 -149 77z m97 -44 l27 -28 -69 -3 c-37 -2 -71 0 -74 3 -11 10 42 55 65 55
13 0 36 -12 51 -27z"/>
<path d="M15602 3724 c-12 -8 -22 -10 -22 -5 0 6 -7 11 -15 11 -12 0 -15 -17
-15 -95 0 -78 3 -95 15 -95 12 0 15 13 15 58 0 64 19 102 51 102 14 0 19 6 17
17 -4 23 -20 26 -46 7z"/>
<path d="M15760 3733 c-30 -11 -60 -47 -66 -79 -17 -93 99 -153 167 -85 73 73
-5 199 -101 164z m78 -43 c46 -43 15 -120 -48 -120 -65 0 -94 79 -44 119 34
27 64 27 92 1z"/>
<path d="M16012 3724 c-12 -8 -22 -10 -22 -5 0 6 -7 11 -15 11 -12 0 -15 -17
-15 -95 0 -78 3 -95 15 -95 11 0 15 13 15 55 0 67 16 104 48 112 38 9 52 -19
52 -99 0 -54 3 -68 15 -68 12 0 15 14 15 69 0 74 14 101 50 101 28 0 40 -31
40 -104 0 -52 3 -66 15 -66 12 0 15 14 15 64 0 80 -12 113 -46 128 -22 10 -31
9 -56 -5 -27 -15 -32 -15 -51 -2 -27 19 -47 19 -75 -1z"/>
<path d="M6400 3635 c0 -78 3 -95 15 -95 12 0 15 17 15 95 0 78 -3 95 -15 95
-12 0 -15 -17 -15 -95z"/>
<path d="M8910 3635 c0 -12 14 -15 65 -15 51 0 65 3 65 15 0 12 -14 15 -65 15
-51 0 -65 -3 -65 -15z"/>
<path d="M10570 3635 c0 -12 14 -15 65 -15 51 0 65 3 65 15 0 12 -14 15 -65
15 -51 0 -65 -3 -65 -15z"/>
<path d="M910 3206 c0 -94 4 -108 27 -85 15 15 33 3 33 -21 0 -32 11 -48 28
-43 10 2 37 -14 67 -41 28 -25 55 -46 61 -46 7 0 19 -11 28 -25 9 -14 23 -25
31 -25 8 0 15 -6 15 -13 0 -8 24 -18 65 -26 69 -14 100 -35 74 -52 -8 -4 -23
-6 -34 -3 -24 8 -19 1 14 -16 19 -10 22 -10 16 1 -6 9 -3 10 8 6 41 -17 50
-17 27 -2 -24 15 -24 16 -3 12 14 -3 33 3 48 15 26 20 35 12 13 -11 -7 -7 24
7 69 31 46 24 83 45 83 48 0 3 -52 34 -116 70 -121 69 -197 112 -304 175 -36
21 -94 54 -130 74 -36 21 -77 45 -92 55 l-28 18 0 -96z"/>
<path d="M7290 3015 c0 -140 2 -165 15 -165 12 0 15 13 15 59 0 48 5 65 23 87
18 21 29 26 49 21 30 -8 38 -30 38 -109 0 -32 5 -58 10 -58 17 0 12 156 -5
174 -25 24 -52 28 -85 11 l-30 -16 0 81 c0 64 -3 80 -15 80 -13 0 -15 -25 -15
-165z"/>
<path d="M8150 3015 c0 -140 2 -165 15 -165 8 0 15 7 15 16 0 14 2 14 22 0 46
-33 107 -16 134 36 22 42 11 90 -27 122 -34 29 -66 33 -95 11 -10 -8 -22 -15
-26 -15 -5 0 -8 36 -8 80 0 64 -3 80 -15 80 -13 0 -15 -25 -15 -165z m145 -20
c46 -45 19 -115 -45 -115 -64 0 -91 70 -45 115 31 32 59 32 90 0z"/>
<path d="M10160 3015 c0 -140 2 -165 15 -165 11 0 15 13 15 53 0 64 17 99 54
112 41 14 56 -12 56 -97 0 -54 3 -68 15 -68 12 0 15 14 15 64 0 79 -12 113
-45 128 -19 9 -31 8 -52 -3 -16 -7 -31 -15 -35 -17 -5 -2 -8 33 -8 77 0 65 -3
81 -15 81 -13 0 -15 -25 -15 -165z"/>
<path d="M11020 3015 c0 -140 2 -165 15 -165 8 0 15 7 15 16 0 14 2 14 22 0
36 -26 85 -20 119 13 67 67 5 188 -85 165 -14 -3 -29 -10 -32 -15 -15 -26 -24
-1 -24 71 0 64 -3 80 -15 80 -13 0 -15 -25 -15 -165z m147 -17 c46 -43 19
-118 -42 -118 -67 0 -95 79 -43 123 27 23 57 22 85 -5z"/>
<path d="M6720 3135 c0 -8 9 -15 20 -15 19 0 20 -7 20 -135 0 -113 2 -135 15
-135 13 0 15 23 15 150 l0 150 -35 0 c-24 0 -35 -5 -35 -15z"/>
<path d="M6896 3120 c-49 -59 -47 -191 4 -242 73 -72 160 -6 160 122 0 93 -39
150 -101 150 -29 0 -43 -7 -63 -30z m111 -26 c25 -39 28 -131 6 -174 -15 -30
-23 -35 -53 -35 -48 0 -73 46 -67 126 4 72 27 109 67 109 21 0 35 -8 47 -26z"/>
<path d="M7660 3000 c0 -125 2 -150 15 -150 11 0 15 16 17 68 l3 67 73 3 c39
2 72 7 72 12 0 5 -33 10 -72 12 l-73 3 -3 53 -3 52 75 0 c61 0 76 3 76 15 0
12 -17 15 -90 15 l-90 0 0 -150z"/>
<path d="M9610 3135 c0 -8 9 -15 20 -15 19 0 20 -7 20 -135 0 -113 2 -135 15
-135 13 0 15 23 15 150 l0 150 -35 0 c-24 0 -35 -5 -35 -15z"/>
<path d="M9770 3135 c0 -11 12 -15 46 -15 l46 0 -34 -41 c-48 -60 -53 -67 -45
-75 4 -4 19 -2 34 5 36 16 77 -1 94 -40 10 -26 9 -34 -8 -57 -27 -37 -77 -41
-109 -11 -17 16 -27 20 -35 12 -18 -18 46 -63 90 -63 43 0 87 35 93 73 9 57
-31 116 -79 117 -23 0 -31 14 -14 25 5 3 24 23 41 45 l32 40 -76 0 c-61 0 -76
-3 -76 -15z"/>
<path d="M10540 3000 c0 -127 2 -150 15 -150 12 0 15 14 15 70 l0 70 70 0 c40
0 70 4 70 10 0 6 -30 10 -70 10 l-70 0 0 55 0 55 70 0 c56 0 70 3 70 15 0 12
-16 15 -85 15 l-85 0 0 -150z"/>
<path d="M12579 3121 c-29 -30 -39 -71 -16 -71 6 0 19 15 27 33 12 26 21 33
52 35 27 2 43 -3 57 -17 39 -39 28 -66 -66 -162 l-87 -89 102 0 c84 0 102 3
102 15 0 12 -14 15 -67 15 l-66 0 66 69 c58 60 67 74 67 106 0 53 -44 95 -100
95 -33 0 -48 -6 -71 -29z"/>
<path d="M12877 3139 c-69 -41 -68 -241 2 -279 32 -16 79 -12 101 10 30 30 40
63 40 130 0 67 -10 100 -40 130 -22 22 -73 26 -103 9z m93 -51 c14 -22 20 -51
20 -88 0 -73 -27 -120 -70 -120 -44 0 -65 38 -65 120 0 82 21 120 65 120 23 0
35 -7 50 -32z"/>
<path d="M13126 3125 c-15 -14 -26 -35 -26 -50 0 -33 11 -31 35 8 38 61 125
42 125 -27 0 -25 -16 -46 -87 -118 l-88 -88 108 0 c88 0 107 3 107 15 0 12
-14 15 -66 15 l-66 0 59 64 c78 83 87 129 36 180 -35 36 -99 36 -137 1z"/>
<path d="M13427 3139 c-17 -10 -47 -59 -47 -79 0 -5 7 -10 15 -10 8 0 15 7 15
15 0 50 95 75 124 33 31 -43 21 -66 -71 -159 l-87 -89 107 0 c88 0 107 3 107
15 0 12 -15 15 -72 15 l-71 0 66 69 c58 60 67 74 67 106 0 52 -44 95 -97 95
-21 0 -46 -5 -56 -11z"/>
<path d="M7158 3083 c-2 -31 -7 -39 -25 -41 -13 -2 -23 -7 -23 -12 0 -5 10
-10 23 -12 20 -3 22 -9 25 -85 2 -46 7 -83 12 -83 5 0 10 37 12 83 3 76 5 82
26 85 12 2 22 7 22 12 0 5 -10 10 -22 12 -19 2 -24 10 -26 41 -2 20 -7 37 -12
37 -5 0 -10 -17 -12 -37z"/>
<path d="M10030 3080 c0 -36 -2 -40 -25 -40 -14 0 -25 -4 -25 -10 0 -5 11 -10
25 -10 25 0 25 -1 25 -85 0 -69 3 -85 15 -85 12 0 15 16 15 85 0 84 0 85 25
85 14 0 25 5 25 10 0 6 -11 10 -25 10 -22 0 -25 4 -25 40 0 29 -4 40 -15 40
-11 0 -15 -11 -15 -40z"/>
<path d="M7943 3040 c-31 -13 -57 -57 -57 -98 0 -46 49 -92 98 -92 32 0 86 32
86 51 0 14 -26 11 -40 -6 -17 -21 -73 -19 -93 3 -32 35 -21 42 63 42 74 0 80
2 80 21 0 31 -17 57 -50 74 -32 17 -54 18 -87 5z m87 -40 c33 -33 24 -40 -45
-40 -71 0 -85 15 -43 44 31 22 64 20 88 -4z"/>
<path d="M8466 3034 c-9 -8 -16 -11 -16 -5 0 6 -7 11 -15 11 -12 0 -15 -17
-15 -95 0 -78 3 -95 15 -95 12 0 15 14 15 68 0 70 10 92 42 92 11 0 18 7 18
20 0 24 -22 26 -44 4z"/>
<path d="M8850 3037 c-14 -7 -33 -29 -43 -50 -16 -31 -17 -42 -7 -72 6 -19 21
-42 33 -50 28 -19 77 -19 105 1 20 14 22 14 22 0 0 -9 7 -16 15 -16 12 0 15
17 15 95 0 78 -3 95 -15 95 -8 0 -15 -5 -15 -10 0 -6 -13 -4 -30 5 -35 18 -47
19 -80 2z m84 -38 c49 -39 24 -119 -37 -119 -38 0 -50 7 -66 37 -15 29 -5 69
22 88 29 20 49 19 81 -6z"/>
<path d="M9122 3034 c-12 -8 -22 -10 -22 -5 0 6 -7 11 -15 11 -12 0 -15 -17
-15 -95 0 -78 3 -95 15 -95 12 0 15 13 15 58 0 64 19 102 51 102 14 0 19 6 17
17 -4 23 -20 26 -46 7z"/>
<path d="M10808 3035 c-35 -20 -48 -44 -48 -90 0 -81 95 -124 157 -71 33 29
25 46 -11 22 -33 -21 -79 -20 -99 2 -32 35 -21 42 69 42 l86 0 -7 28 c-15 63
-92 98 -147 67z m90 -31 c42 -29 28 -44 -43 -44 -69 0 -78 7 -45 40 24 24 57
26 88 4z"/>
<path d="M11342 3034 c-12 -8 -22 -10 -22 -5 0 6 -7 11 -15 11 -12 0 -15 -17
-15 -95 0 -78 3 -95 15 -95 11 0 15 13 15 55 0 70 16 105 47 105 17 0 24 5 21
17 -4 23 -20 26 -46 7z"/>
<path d="M11721 3036 c-84 -46 -55 -186 38 -186 20 0 47 7 59 16 20 14 22 14
22 0 0 -9 5 -16 10 -16 6 0 10 38 10 95 0 52 -4 95 -9 95 -5 0 -11 -5 -13 -11
-2 -6 -14 -5 -33 5 -36 19 -53 19 -84 2z m90 -34 c47 -39 17 -122 -44 -122
-63 0 -90 70 -45 117 26 28 58 29 89 5z"/>
<path d="M11996 3034 c-9 -8 -16 -11 -16 -5 0 6 -7 11 -15 11 -12 0 -15 -17
-15 -95 0 -78 3 -95 15 -95 12 0 15 14 15 68 0 70 10 92 42 92 11 0 18 7 18
20 0 24 -22 26 -44 4z"/>
<path d="M8570 2967 c0 -87 16 -117 61 -117 17 0 39 5 50 10 13 7 19 7 19 0 0
-5 7 -10 15 -10 12 0 15 17 15 95 0 78 -3 95 -15 95 -12 0 -15 -13 -15 -58 0
-74 -19 -104 -63 -100 l-32 3 -3 78 c-2 59 -6 77 -17 77 -12 0 -15 -16 -15
-73z"/>
<path d="M9239 2962 l39 -78 -33 -72 c-31 -66 -32 -72 -14 -72 10 0 19 2 19 3
0 2 29 70 64 150 48 108 61 147 50 147 -9 0 -27 -26 -43 -62 l-28 -63 -32 63
c-17 34 -38 62 -46 62 -11 0 -5 -19 24 -78z"/>
<path d="M11440 2974 c0 -63 11 -101 34 -116 19 -13 60 -9 84 8 20 14 22 14
22 0 0 -9 5 -16 10 -16 6 0 10 38 10 95 0 105 -14 128 -23 36 -7 -80 -20 -101
-61 -101 -41 0 -46 10 -46 96 0 50 -3 64 -15 64 -12 0 -15 -14 -15 -66z"/>
<path d="M12110 2961 l39 -79 -29 -66 c-35 -76 -35 -79 -14 -74 9 2 39 57 73
133 75 169 73 165 56 165 -8 0 -28 -27 -44 -62 l-29 -63 -28 63 c-20 42 -34
62 -46 62 -16 0 -12 -12 22 -79z"/>
<path d="M9410 2950 c0 -6 32 -10 75 -10 43 0 75 4 75 10 0 6 -32 10 -75 10
-43 0 -75 -4 -75 -10z"/>
<path d="M12307 2871 c-3 -16 -9 -40 -13 -55 -11 -44 12 -29 32 21 11 27 21
51 22 55 2 5 -5 8 -16 8 -13 0 -21 -9 -25 -29z"/>
<path d="M13670 2870 c0 -16 5 -21 23 -18 12 2 22 10 22 18 0 8 -10 16 -22 18
-18 3 -23 -2 -23 -18z"/>
<path d="M580 2720 c-8 -5 -64 -36 -125 -70 -60 -34 -114 -66 -119 -70 -5 -5
10 -20 35 -35 103 -62 214 -125 221 -125 5 0 8 70 8 155 0 85 -1 155 -2 154
-2 0 -10 -4 -18 -9z"/>
<path d="M15430 2526 c-4 -13 -13 -42 -19 -64 -11 -39 -13 -40 -62 -47 -56 -8
-50 -25 9 -25 l33 0 -7 -52 c-8 -66 -16 -81 -59 -113 -52 -40 -70 -31 -71 35
0 30 -5 55 -10 55 -5 -1 -20 -22 -34 -48 -28 -52 -56 -84 -66 -74 -3 3 -7 20
-8 38 -2 48 -20 45 -46 -7 -13 -25 -37 -57 -54 -71 l-29 -25 -12 22 c-7 13
-10 43 -7 71 4 38 0 54 -13 69 -26 28 -40 25 -89 -20 -68 -63 -82 -122 -40
-164 22 -23 48 -20 82 9 29 24 29 24 47 5 10 -11 25 -20 34 -20 21 1 58 29 80
64 19 28 19 28 30 7 16 -30 46 -26 71 9 25 36 37 38 42 8 5 -35 39 -33 95 5
47 32 51 33 62 15 25 -40 105 -4 146 66 36 61 31 64 -17 8 -40 -46 -90 -77
-102 -64 -9 9 -7 57 3 67 5 6 20 39 34 75 19 51 29 65 50 71 37 10 137 62 137
71 0 14 -18 9 -68 -16 -26 -14 -60 -28 -75 -32 -26 -6 -28 -4 -22 18 7 27 -9
78 -25 78 -6 0 -15 -11 -20 -24z m-3 -148 c-3 -8 -6 -5 -6 6 -1 11 2 17 5 13
3 -3 4 -12 1 -19z m-469 -126 c4 -28 -34 -105 -60 -121 -19 -12 -20 -11 -15 9
5 18 2 21 -14 17 -23 -6 -23 -6 -4 38 15 38 63 86 80 81 6 -1 11 -12 13 -24z"/>
<path d="M14242 2448 c-14 -14 -16 -52 -2 -43 13 8 13 -6 -5 -100 -9 -44 -28
-107 -44 -140 -28 -59 -81 -125 -102 -125 -14 0 -34 50 -58 150 -26 104 -59
180 -79 180 -20 0 -8 -96 17 -130 9 -14 25 -54 35 -90 10 -36 26 -84 36 -107
16 -37 23 -43 49 -43 25 0 37 10 75 63 40 56 80 139 93 192 7 31 19 183 15
194 -5 14 -15 14 -30 -1z"/>
<path d="M14740 2416 c-11 -26 -20 -53 -20 -59 0 -6 -5 -25 -12 -44 -10 -26
-16 -31 -34 -27 -17 4 -29 -4 -57 -38 -43 -52 -76 -122 -77 -160 0 -22 -7 -31
-36 -43 -49 -20 -144 -18 -144 4 0 3 24 21 54 40 73 45 98 107 60 145 -51 51
-152 -31 -167 -136 -5 -33 -2 -41 24 -63 44 -36 75 -41 144 -21 33 10 76 20
97 23 20 3 51 17 69 32 l33 28 24 -29 c25 -29 63 -37 92 -18 11 7 6 10 -21 10
-71 0 -81 45 -34 151 46 101 66 213 42 237 -15 14 -18 11 -37 -32z m-80 -198
c-13 -56 -27 -82 -59 -112 -40 -38 -42 -17 -5 57 43 85 79 116 64 55z m-204
-30 c5 -18 -1 -29 -30 -54 -43 -37 -86 -50 -86 -25 0 37 61 100 97 101 6 0 15
-10 19 -22z m207 -63 c-3 -9 -8 -14 -10 -11 -3 3 -2 9 2 15 9 16 15 13 8 -4z"/>
<path d="M16070 2150 c0 -13 5 -18 15 -14 8 4 15 12 15 20 0 8 -7 14 -15 14
-8 0 -15 -9 -15 -20z"/>
<path d="M15790 2140 c-8 -5 -32 -10 -52 -10 -21 0 -38 -4 -38 -9 0 -5 -9 -7
-19 -4 -24 6 -344 -22 -466 -42 -49 -7 -157 -23 -240 -35 -411 -58 -716 -123
-903 -192 -107 -40 -117 -53 -49 -63 35 -6 53 8 25 18 -16 5 -7 16 18 21 11 2
66 18 124 34 222 65 481 115 839 162 41 6 78 16 83 22 6 10 8 9 8 -2 0 -9 3
-11 8 -5 4 6 34 11 66 12 33 2 62 6 65 10 3 5 31 9 61 10 30 1 151 11 268 22
117 12 215 21 218 21 3 0 2 5 -1 10 -3 6 1 10 9 10 9 0 16 5 16 10 0 13 -20
13 -40 0z m-597 -87 c-7 -2 -19 -2 -25 0 -7 3 -2 5 12 5 14 0 19 -2 13 -5z"/>
<path d="M15850 2120 c0 -5 5 -10 10 -10 6 0 10 5 10 10 0 6 -4 10 -10 10 -5
0 -10 -4 -10 -10z"/>
<path d="M530 1376 l0 -555 33 -25 c17 -13 59 -39 92 -56 51 -28 175 -100 225
-131 28 -17 384 -222 435 -250 28 -15 77 -43 109 -63 33 -20 63 -36 66 -36 4
0 10 172 14 382 3 211 9 393 12 405 6 20 7 20 23 4 10 -10 21 -25 24 -35 4 -9
11 -14 17 -11 5 3 10 1 10 -4 0 -6 5 -11 12 -11 7 0 28 -11 49 -25 20 -14 56
-28 79 -31 24 -3 51 -9 61 -15 10 -5 26 -9 37 -9 13 0 22 -9 26 -25 4 -14 10
-25 14 -25 4 0 25 -24 46 -52 38 -52 81 -87 185 -152 l53 -33 -33 -25 c-37
-28 -257 -160 -471 -283 -76 -43 -135 -82 -131 -87 3 -6 5 -59 4 -119 l-2
-109 1411 0 c818 0 1409 4 1406 9 -3 5 -22 12 -41 15 -20 4 -39 14 -42 22 -3
7 -11 14 -17 14 -7 0 -22 9 -33 19 -12 11 -24 17 -27 14 -3 -4 -15 3 -26 15
-12 12 -25 22 -30 22 -5 0 -10 10 -12 23 -2 16 -9 21 -26 20 -12 -2 -22 2 -22
7 0 6 -5 10 -11 10 -6 0 -17 6 -24 12 -33 30 -45 38 -53 38 -5 0 -18 11 -28
25 -10 14 -27 25 -37 25 -10 0 -15 5 -12 10 3 6 0 10 -7 10 -21 0 -91 38 -101
55 -10 18 0 55 15 55 6 0 21 10 34 23 13 12 33 30 45 41 12 10 17 21 13 25 -5
3 -9 13 -9 21 0 8 -18 21 -41 30 -23 8 -49 21 -58 29 -9 7 -16 11 -16 7 0 -11
-105 36 -123 55 -10 11 -22 17 -28 14 -5 -4 -12 1 -16 11 -6 15 -7 15 -21 -2
-13 -16 -14 -17 -9 -2 4 10 2 18 -3 18 -6 0 -10 9 -10 20 0 21 -15 27 -25 9
-4 -6 -14 -8 -23 -4 -8 3 -19 0 -24 -7 -4 -7 -8 -113 -8 -235 0 -122 -4 -224
-9 -227 -8 -5 -102 47 -511 284 -248 144 -287 166 -443 253 -70 40 -238 137
-375 216 -136 79 -321 186 -412 238 -91 52 -181 107 -200 122 -19 15 -82 53
-140 86 -58 32 -184 103 -280 158 -96 55 -190 108 -208 119 -74 42 -289 166
-322 186 -19 12 -38 22 -42 22 -5 0 -8 -250 -8 -554z"/>
<path d="M2350 1866 c-63 -36 -119 -68 -125 -73 -5 -5 -17 -12 -25 -16 -37
-17 -154 -95 -158 -105 -2 -7 5 -12 16 -12 11 0 22 -9 25 -20 3 -11 13 -20 23
-20 9 0 25 -7 34 -15 9 -8 30 -17 46 -19 36 -4 84 -26 84 -38 0 -5 4 -7 9 -3
6 3 19 -5 30 -17 12 -12 21 -16 21 -10 0 7 5 12 11 12 5 0 7 -6 3 -12 -6 -10
-4 -10 8 0 13 10 17 10 22 -3 3 -8 12 -15 21 -15 11 0 15 -12 15 -47 l1 -48
14 30 c7 17 14 24 14 18 2 -30 29 -10 35 25 8 53 7 452 -1 452 -5 0 -60 -29
-123 -64z"/>
<path d="M1527 1784 c-3 -11 -9 -95 -12 -189 -4 -93 -9 -178 -11 -187 -7 -24
26 -24 57 0 13 10 69 45 124 77 55 32 105 64 112 70 6 7 25 17 41 24 33 14 51
41 27 41 -8 0 -15 6 -15 13 -1 20 -71 59 -96 53 -22 -6 -74 11 -74 24 0 11
-79 52 -89 45 -6 -3 -21 6 -34 21 -23 24 -25 25 -30 8z m98 -54 c10 -11 16
-20 13 -20 -3 0 -13 9 -23 20 -10 11 -16 20 -13 20 3 0 13 -9 23 -20z"/>
<path d="M3220 1564 c-25 -15 -58 -34 -75 -44 -16 -9 -84 -47 -150 -85 -66
-37 -171 -97 -233 -133 l-114 -65 29 -23 c15 -13 31 -23 36 -24 4 0 37 -18 73
-40 36 -22 68 -40 70 -40 2 0 37 -19 77 -43 39 -24 106 -63 147 -87 41 -24
100 -58 130 -76 l55 -33 3 180 c1 98 1 260 0 359 l-3 179 -45 -25z"/>
<path d="M13790 1491 l0 -70 -37 15 c-72 31 -136 -5 -154 -87 -13 -58 5 -133
38 -159 32 -25 114 -28 133 -5 7 8 16 15 21 15 5 0 9 -7 9 -15 0 -8 7 -15 15
-15 13 0 15 28 15 195 0 188 -1 195 -20 195 -18 0 -20 -7 -20 -69z m-34 -89
c39 -26 47 -133 13 -176 -28 -36 -80 -36 -108 0 -34 43 -26 150 13 176 6 4 25
8 41 8 17 0 35 -4 41 -8z"/>
<path d="M15147 1554 c-4 -4 -7 -92 -7 -196 l0 -188 25 0 25 0 0 100 c0 115
13 140 74 140 58 0 66 -17 66 -136 0 -97 1 -104 20 -104 19 0 20 7 20 105 0
118 -10 150 -53 165 -41 14 -57 13 -97 -8 l-35 -17 0 70 c0 55 -3 70 -15 73
-9 1 -19 0 -23 -4z"/>
<path d="M15742 1518 c4 -27 33 -36 42 -13 8 22 -1 35 -25 35 -15 0 -20 -6
-17 -22z"/>
<path d="M12980 1523 c0 -5 27 -86 61 -180 83 -232 83 -232 167 0 34 94 62
176 62 180 0 5 -10 7 -22 5 -18 -2 -29 -26 -72 -150 l-52 -147 -23 67 c-73
211 -83 232 -102 232 -10 0 -19 -3 -19 -7z"/>
<path d="M14840 1350 c0 -173 1 -180 20 -180 18 0 20 7 20 75 0 65 3 76 21 85
11 7 22 10 23 8 113 -151 128 -168 153 -168 l25 0 -24 33 c-13 17 -48 63 -76
101 -60 79 -63 64 37 169 53 54 54 57 29 57 -20 0 -45 -20 -107 -87 l-80 -88
-1 88 c0 80 -2 87 -20 87 -19 0 -20 -7 -20 -180z"/>
<path d="M14532 1481 c-6 -16 -20 -34 -31 -41 -26 -14 -27 -30 -2 -30 17 0 19
-10 23 -106 3 -91 6 -108 22 -120 27 -19 96 -19 96 1 0 10 -10 15 -30 15 -41
0 -50 23 -50 124 l0 86 40 0 c54 0 56 27 3 32 -35 3 -38 6 -41 36 -4 40 -17
41 -30 3z"/>
<path d="M18266 1448 c-57 -57 -69 -102 -65 -243 5 -153 20 -181 169 -305 62
-52 117 -104 121 -115 12 -32 10 -160 -3 -173 -17 -17 -55 -15 -62 4 -3 9 -6
58 -6 110 l0 95 -107 -3 -108 -3 3 -104 c5 -123 20 -173 69 -224 l37 -37 -124
0 -125 0 37 30 c61 50 63 64 63 470 0 385 -2 409 -47 466 -20 25 -89 63 -115
64 -10 0 -103 -151 -103 -167 0 -2 7 -11 15 -19 23 -23 22 -635 -1 -658 -8 -9
-24 -16 -35 -16 -18 0 -19 12 -21 308 l-3 309 -282 -512 c-156 -281 -283 -515
-283 -520 0 -9 1737 -1 1747 8 3 4 -95 189 -218 413 l-224 406 -73 54 c-97 73
-104 86 -101 176 3 70 1 78 -38 148 -22 41 -48 76 -57 78 -10 2 -36 -15 -60
-40z m-504 -1133 c0 -34 2 -37 24 -32 13 2 24 0 24 -4 0 -5 -15 -9 -33 -9 -32
0 -32 0 -29 46 5 53 14 52 14 -1z m48 35 c0 -5 -2 -10 -4 -10 -3 0 -8 5 -11
10 -3 6 -1 10 4 10 6 0 11 -4 11 -10z m270 1 c0 -4 -11 -6 -25 -3 -29 5 -34
-12 -7 -27 16 -10 16 -10 0 -11 -21 0 -32 16 -24 35 6 16 56 21 56 6z m228
-32 c14 -1 14 -2 -1 -6 -13 -3 -17 -11 -14 -24 3 -10 1 -19 -4 -19 -5 0 -8 21
-8 48 1 26 4 37 6 25 2 -13 12 -24 21 -24z m30 10 c-3 -8 -7 -3 -11 10 -4 17
-3 21 5 13 5 -5 8 -16 6 -23z m125 24 c-20 -8 -16 -71 5 -76 9 -3 1 -5 -18 -6
-23 0 -30 2 -21 8 9 6 12 21 9 45 -3 31 -1 36 17 35 11 0 14 -3 8 -6z m107
-23 c0 -16 -2 -30 -4 -30 -2 0 -6 14 -8 30 -3 17 -1 30 4 30 4 0 8 -13 8 -30z
m39 16 c9 -10 7 -17 -6 -27 -16 -12 -17 -12 -6 2 10 12 10 18 1 27 -7 7 -9 12
-6 12 3 0 11 -6 17 -14z m74 -1 c-3 -9 -8 -14 -10 -11 -3 3 -2 9 2 15 9 16 15
13 8 -4z m37 -24 c0 -22 5 -42 13 -44 6 -3 -1 -6 -18 -6 -21 0 -26 2 -16 8 9
6 12 21 9 45 -2 20 0 36 4 36 4 0 8 -18 8 -39z m-1042 -3 c4 -30 -19 -51 -50
-45 -20 4 -20 4 5 6 33 1 45 26 28 53 -10 16 -10 19 1 16 7 -3 14 -16 16 -30z
m262 22 c-8 -5 -19 -10 -25 -10 -5 0 -3 5 5 10 8 5 20 10 25 10 6 0 3 -5 -5
-10z m219 -9 c-18 -28 -4 -54 26 -49 13 3 22 1 19 -3 -15 -24 -64 0 -64 31 0
9 5 21 12 28 17 17 20 15 7 -7z m-268 -8 c-10 -4 -8 -9 10 -20 l24 -14 -25 7
c-14 3 -27 8 -29 10 -6 6 10 24 22 23 7 0 6 -3 -2 -6z m186 -38 c-7 -16 -57
-22 -57 -6 0 4 11 6 25 3 19 -3 25 0 25 14 0 9 3 15 6 11 4 -3 4 -13 1 -22z
m277 -14 c-2 -3 -12 3 -22 13 -16 17 -16 18 5 5 12 -7 20 -15 17 -18z m221 9
c3 -5 -1 -10 -10 -10 -9 0 -13 5 -10 10 3 6 8 10 10 10 2 0 7 -4 10 -10z"/>
<path d="M13374 1434 c-48 -24 -68 -68 -62 -144 4 -55 8 -66 36 -91 28 -26 40
-29 96 -29 43 0 67 5 76 15 18 22 4 36 -26 25 -55 -21 -114 -5 -133 37 -23 50
-19 53 85 53 l97 0 -7 41 c-9 53 -30 85 -68 98 -41 14 -57 14 -94 -5z m98 -41
c10 -9 18 -27 18 -40 0 -22 -3 -23 -70 -23 -78 0 -85 8 -49 54 24 31 72 35
101 9z"/>
<path d="M13968 1438 c-16 -5 -28 -16 -28 -24 0 -11 11 -13 56 -8 49 6 59 4
70 -11 8 -11 14 -29 14 -42 0 -21 -4 -23 -50 -23 -107 0 -162 -67 -109 -134
17 -21 29 -26 68 -26 26 0 56 7 69 16 20 14 23 14 28 0 3 -9 12 -16 20 -16 11
0 14 22 14 104 0 58 -4 116 -9 129 -15 40 -85 57 -143 35z m112 -163 c0 -35
-42 -75 -77 -75 -45 0 -57 14 -54 63 1 22 34 36 89 36 39 1 42 -1 42 -24z"/>
<path d="M14273 1430 c-27 -16 -33 -17 -33 -5 0 8 -9 15 -20 15 -19 0 -20 -7
-20 -135 l0 -135 25 0 25 0 0 100 c0 115 13 140 74 140 58 0 66 -17 66 -136 0
-97 1 -104 20 -104 19 0 20 7 20 113 -1 121 -7 139 -54 157 -40 15 -67 12
-103 -10z"/>
<path d="M15503 1439 c-18 -5 -33 -16 -33 -24 0 -12 10 -14 55 -9 64 8 85 -4
85 -47 0 -28 -2 -29 -44 -29 -55 0 -104 -17 -116 -40 -18 -34 -12 -88 12 -104
34 -24 107 -21 135 6 l23 21 0 -21 c0 -16 6 -22 21 -22 21 0 21 3 17 115 -4
100 -7 119 -25 136 -24 24 -84 32 -130 18z m107 -169 c0 -38 -34 -70 -75 -70
-37 0 -55 15 -55 46 0 32 36 54 87 54 41 0 43 -1 43 -30z"/>
<path d="M15941 1425 c-30 -26 -31 -26 -31 -6 0 14 -6 21 -20 21 -19 0 -20 -7
-20 -135 0 -126 1 -135 19 -135 17 0 19 9 23 95 3 107 17 131 79 144 41 8 46
35 8 39 -17 2 -37 -6 -58 -23z"/>
<path d="M16170 1443 c-8 -3 -22 -12 -31 -20 -14 -12 -17 -12 -22 2 -4 8 -13
15 -22 15 -13 0 -15 -20 -15 -135 0 -128 1 -135 20 -135 19 0 20 7 20 94 0 80
3 97 21 120 18 23 28 27 62 24 56 -4 67 -28 67 -145 0 -88 1 -93 21 -93 20 0
21 4 17 115 -3 100 -6 117 -24 136 -21 21 -86 34 -114 22z"/>
<path d="M16438 1438 c-16 -5 -28 -16 -28 -24 0 -11 11 -13 56 -8 49 6 59 4
70 -11 8 -11 14 -29 14 -42 0 -21 -4 -23 -50 -23 -107 0 -162 -67 -109 -134
17 -21 29 -26 68 -26 26 0 56 7 69 16 20 14 23 14 28 0 3 -9 12 -16 20 -16 11
0 14 22 14 104 0 58 -4 116 -9 129 -15 40 -85 57 -143 35z m112 -163 c0 -35
-42 -75 -77 -75 -45 0 -57 14 -54 63 1 22 34 36 89 36 39 1 42 -1 42 -24z"/>
<path d="M16758 1434 c-16 -8 -28 -19 -28 -24 0 -6 -4 -10 -10 -10 -5 0 -10 9
-10 20 0 11 -7 20 -15 20 -13 0 -15 -22 -15 -135 0 -128 1 -135 20 -135 19 0
20 7 20 94 0 85 2 95 25 120 16 17 34 26 55 26 23 0 30 4 30 20 0 24 -32 26
-72 4z"/>
<path d="M15740 1305 c0 -128 1 -135 20 -135 19 0 20 7 20 135 0 128 -1 135
-20 135 -19 0 -20 -7 -20 -135z"/>
<path d="M0 799 l0 -300 40 23 c21 13 74 44 117 69 43 26 96 57 118 69 22 12
54 30 70 40 17 9 63 36 103 59 l73 43 -93 55 c-233 137 -416 243 -422 243 -3
0 -6 -135 -6 -301z"/>
<path d="M14350 850 c0 -48 -1 -50 -20 -40 -12 6 -38 10 -58 8 -32 -3 -40 -8
-56 -41 -21 -45 -16 -97 15 -128 23 -23 81 -25 100 -3 12 14 14 14 20 -3 4
-10 8 44 8 120 1 75 -1 137 -4 137 -3 0 -5 -23 -5 -50z m-26 -55 c32 -33 28
-125 -7 -147 -41 -26 -97 18 -97 77 0 65 65 108 104 70z"/>
<path d="M13407 883 c-11 -11 -8 -253 3 -253 6 0 10 25 10 55 l0 55 54 0 c30
0 58 5 61 10 4 6 -17 10 -54 10 l-61 0 0 55 0 55 60 0 c33 0 60 4 60 10 0 11
-123 14 -133 3z"/>
<path d="M14948 884 c-5 -4 -8 -63 -8 -131 l0 -123 51 0 c66 0 113 23 133 65
29 61 12 144 -36 174 -24 15 -129 27 -140 15z m116 -24 c61 -23 75 -141 21
-187 -19 -17 -38 -23 -76 -23 l-49 0 0 110 0 110 39 0 c22 0 51 -4 65 -10z"/>
<path d="M15572 874 c-18 -12 -22 -24 -20 -52 3 -34 8 -39 63 -67 53 -27 60
-33 60 -60 0 -39 -35 -58 -94 -49 -29 4 -41 2 -36 -5 3 -6 31 -11 61 -11 41 0
59 5 74 20 40 40 21 90 -45 116 -104 39 -89 115 20 102 36 -4 47 5 19 16 -29
11 -79 6 -102 -10z"/>
<path d="M16060 875 c0 -8 5 -15 10 -15 6 0 10 7 10 15 0 8 -4 15 -10 15 -5 0
-10 -7 -10 -15z"/>
<path d="M16366 848 c-4 -15 -15 -29 -24 -31 -15 -4 -15 -5 1 -6 15 -1 17 -12
17 -79 0 -87 8 -102 55 -101 l30 1 -32 9 -33 10 0 79 c0 78 0 79 28 83 l27 4
-27 2 c-21 1 -27 7 -30 29 l-4 27 -8 -27z"/>
<path d="M13591 794 c-49 -62 -14 -164 55 -164 49 0 71 14 84 56 15 45 0 108
-30 124 -36 19 -87 12 -109 -16z m108 -10 c29 -37 27 -89 -4 -119 -49 -50
-105 -18 -105 60 0 79 66 114 109 59z"/>
<path d="M13790 742 c0 -64 4 -82 18 -95 22 -20 83 -22 100 -5 9 9 12 9 12 0
0 -7 5 -12 10 -12 6 0 10 38 10 95 0 114 -18 129 -22 18 -3 -72 -5 -78 -30
-92 -21 -12 -31 -13 -52 -3 -25 11 -26 15 -26 92 0 47 -4 80 -10 80 -6 0 -10
-33 -10 -78z"/>
<path d="M14000 725 c0 -113 16 -127 22 -19 4 82 18 104 64 104 41 0 54 -25
54 -106 0 -48 4 -74 11 -74 16 0 6 154 -11 174 -14 18 -72 21 -101 6 -13 -7
-19 -7 -19 0 0 5 -4 10 -10 10 -6 0 -10 -38 -10 -95z"/>
<path d="M14441 794 c-14 -18 -21 -41 -21 -71 0 -61 32 -93 94 -93 25 0 47 4
50 8 3 5 -18 8 -45 8 -53 -1 -79 17 -79 56 0 16 9 18 65 18 64 0 65 0 65 28 0
46 -25 72 -70 72 -30 0 -43 -6 -59 -26z m86 8 c6 -4 16 -20 22 -35 l11 -27
-60 0 c-66 0 -77 13 -40 50 21 21 46 25 67 12z"/>
<path d="M14632 725 l1 -100 7 73 c9 80 25 108 69 115 24 4 23 4 -5 6 -18 0
-37 -6 -45 -15 -12 -14 -14 -14 -20 3 -4 10 -7 -27 -7 -82z"/>
<path d="M15222 813 c-18 -7 -42 -57 -42 -88 0 -33 24 -81 45 -89 26 -10 93
-7 100 4 4 7 -7 8 -34 4 -34 -5 -43 -3 -65 19 -44 44 -35 56 42 59 l67 3 -2
29 c-4 53 -56 81 -111 59z m82 -25 c28 -40 21 -48 -44 -48 -33 0 -60 3 -60 6
0 11 23 49 34 56 21 15 55 8 70 -14z"/>
<path d="M15363 808 c2 -7 19 -50 37 -95 17 -46 35 -83 40 -83 6 0 80 169 80
185 0 3 -4 5 -9 5 -5 0 -22 -36 -37 -80 -16 -44 -31 -80 -34 -80 -3 0 -18 36
-34 80 -15 44 -33 80 -38 80 -6 0 -8 -6 -5 -12z"/>
<path d="M15782 813 c-18 -7 -42 -57 -42 -88 0 -33 24 -81 45 -89 26 -10 83
-7 90 5 5 7 -5 8 -28 4 -30 -6 -40 -3 -61 19 -54 53 -15 154 55 144 16 -3 32
-1 35 4 6 9 -72 10 -94 1z"/>
<path d="M15920 725 c0 -57 4 -95 10 -95 6 0 10 29 10 68 0 76 11 98 55 111
l30 9 -30 1 c-17 1 -36 -4 -43 -11 -9 -9 -12 -9 -12 0 0 7 -4 12 -10 12 -6 0
-10 -38 -10 -95z"/>
<path d="M16060 725 c0 -57 4 -95 10 -95 6 0 10 38 10 95 0 57 -4 95 -10 95
-6 0 -10 -38 -10 -95z"/>
<path d="M16140 686 c0 -79 4 -137 10 -141 6 -4 10 15 10 50 0 52 1 55 19 45
25 -13 67 -13 91 0 40 21 45 123 9 166 -13 16 -72 19 -100 4 -13 -7 -19 -7
-19 0 0 5 -4 10 -10 10 -6 0 -10 -51 -10 -134z m124 109 c38 -39 27 -126 -19
-147 -56 -25 -98 32 -80 111 10 48 66 68 99 36z"/>
<path d="M6390 779 c-145 -85 -313 -179 -319 -179 -5 0 -19 -8 -32 -19 -13
-10 -51 -32 -83 -50 -33 -17 -64 -35 -70 -40 -6 -4 -36 -22 -66 -38 -136 -75
-360 -205 -365 -212 -2 -5 85 -61 195 -125 l199 -116 351 0 c260 0 350 3 350
12 0 6 -3 9 -6 5 -6 -5 -15 0 -49 31 -7 6 -23 12 -34 12 -15 0 -21 7 -22 23
-1 21 -1 21 -9 -3 -4 -14 -9 117 -10 295 -2 338 -4 403 -11 409 -2 2 -11 0
-19 -5z"/>
<path d="M4460 764 c0 -9 5 -12 13 -8 9 6 9 5 0 -7 -8 -10 -12 -124 -15 -382
l-3 -367 487 0 487 0 3 120 c2 86 0 120 -8 120 -16 0 -124 57 -119 62 3 2 -11
10 -30 17 -19 7 -35 15 -35 19 0 4 -30 23 -68 42 -37 19 -70 39 -74 44 -3 5
-13 11 -21 12 -7 1 -59 29 -114 63 -56 33 -106 61 -112 61 -6 0 -11 3 -11 8 0
4 -9 13 -21 20 -14 9 -19 9 -14 2 4 -7 -12 2 -36 19 -24 18 -49 29 -56 26 -8
-2 -12 -1 -9 4 5 7 -61 51 -171 113 -56 31 -73 34 -73 12z"/>
<path d="M8335 767 c-11 -7 -22 -14 -25 -17 -3 -3 -9 -6 -15 -7 -23 -4 -124
-71 -117 -78 4 -5 2 -5 -5 -1 -6 3 -41 -12 -78 -34 -36 -22 -71 -40 -77 -40
-6 0 -8 -3 -5 -6 4 -4 -13 -16 -36 -27 -23 -11 -79 -42 -125 -69 -45 -26 -87
-48 -92 -48 -5 0 -17 -11 -28 -25 -11 -13 -22 -22 -25 -19 -3 3 -15 0 -26 -8
-12 -8 -18 -18 -14 -22 4 -4 0 -4 -8 -1 -16 6 -118 -48 -157 -84 -12 -11 -26
-21 -30 -21 -21 -1 -43 -13 -39 -23 3 -9 70 -50 207 -124 25 -14 52 -31 61
-39 8 -8 18 -14 22 -14 3 0 28 -14 54 -30 l47 -30 273 0 273 0 0 60 c0 33 0
202 0 375 0 173 0 322 0 330 0 18 -8 18 -35 2z m-795 -477 c-8 -5 -19 -10 -25
-10 -5 0 -3 5 5 10 8 5 20 10 25 10 6 0 3 -5 -5 -10z"/>
<path d="M7410 591 c1 -88 4 -161 6 -161 2 0 57 31 122 68 65 38 127 72 137
76 24 9 19 13 -95 79 -52 30 -112 64 -133 77 l-38 22 1 -161z"/>
<path d="M5497 660 c-9 -32 -9 -210 -1 -210 15 0 120 65 132 82 7 10 19 18 27
18 8 0 12 6 9 14 -6 16 -52 38 -64 31 -5 -3 -11 -1 -15 5 -3 5 -15 10 -26 10
-11 0 -19 7 -19 16 0 8 -4 13 -9 10 -5 -4 -13 6 -18 21 l-9 27 -7 -24z"/>
<path d="M14760 656 c0 -7 -3 -29 -6 -47 -4 -28 -3 -31 6 -16 7 10 16 32 20
48 7 22 5 29 -6 29 -8 0 -14 -6 -14 -14z"/>
<path d="M11633 544 c3 -49 9 -69 21 -76 10 -5 22 -22 28 -36 6 -15 12 -22 15
-14 7 17 42 15 49 -3 4 -8 10 -15 15 -15 6 0 21 -8 35 -17 l26 -17 -23 -10
c-23 -10 -23 -10 8 -14 33 -3 78 -46 67 -63 -3 -5 2 -6 10 -3 10 4 16 1 16 -9
0 -8 14 -20 30 -26 17 -5 37 -17 45 -24 8 -9 25 -12 40 -9 20 3 23 7 13 14 -9
6 -7 8 8 6 22 -3 144 50 144 63 0 4 -12 14 -27 22 -25 13 -110 62 -263 153
-30 18 -82 47 -115 64 -33 18 -71 40 -85 50 -58 39 -63 37 -57 -36z"/>
<path d="M5650 596 c0 -2 7 -7 16 -10 8 -3 12 -2 9 4 -6 10 -25 14 -25 6z"/>
<path d="M12922 200 c-46 -28 -85 -50 -86 -50 -2 0 -43 -25 -92 -55 -49 -31
-107 -64 -129 -75 l-40 -20 218 0 217 0 0 125 c0 69 -1 125 -2 125 -2 -1 -41
-23 -86 -50z"/>
<path d="M8560 114 l0 -114 34 0 c32 0 135 48 163 75 7 7 18 15 25 18 19 7
-14 32 -94 71 -37 19 -64 36 -61 40 4 3 4 6 2 6 -2 0 -19 4 -37 9 l-32 10 0
-115z"/>
<path d="M9380 111 l0 -111 175 0 c96 0 175 3 175 8 -1 8 -61 47 -130 83 -25
13 -47 27 -50 30 -3 4 -31 21 -63 38 -33 18 -70 39 -83 48 l-24 15 0 -111z"/>
<path d="M0 95 l0 -95 168 1 c124 0 160 3 139 11 -25 9 -32 19 -28 42 1 5 -7
6 -19 3 -11 -3 -22 -1 -25 3 -8 13 -60 37 -95 45 -19 4 -35 16 -39 28 -5 14
-27 29 -55 39 l-46 17 0 -94z"/>
</g>
</svg>
